<?xml version="1.0" standalone="no"?>
<!DOCTYPE svg PUBLIC "-//W3C//DTD SVG 1.1//EN" "http://www.w3.org/Graphics/SVG/1.1/DTD/svg11.dtd" >
<svg xmlns="http://www.w3.org/2000/svg">
<metadata>Generated by IcoMoon</metadata>
<defs>
<font id="ibm-glyph" horiz-adv-x="1024">
<font-face units-per-em="1024" ascent="960" descent="-64" />
<missing-glyph horiz-adv-x="1024" />
<glyph unicode="&#x20;" horiz-adv-x="512" d="" />
<glyph unicode="&#xe800;" glyph-name="caret-left_24" d="M204.8 426.667l512-507.345 107.055 107.055-400.291 400.291 400.291 404.945-107.055 111.709z" />
<glyph unicode="&#xe801;" glyph-name="caret-right_24" d="M307.2 943.322l-102.4-111.709 395.636-404.945-395.636-400.291 102.4-107.055 516.655 507.345z" />
<glyph unicode="&#xe802;" glyph-name="caret-down_24" d="M1024 636.122l-107.055 102.4-409.6-395.636-395.636 395.636-111.709-102.4 507.345-516.655z" />
<glyph unicode="&#xe803;" glyph-name="caret-up_24" d="M507.345 738.522l-507.345-516.655 111.709-102.4 395.636 400.291 409.6-400.291 107.055 102.4z" />
<glyph unicode="&#xe804;" glyph-name="add-new_24" d="M512 896c-259.157 0-469.333-210.133-469.333-469.333s210.176-469.333 469.333-469.333 469.333 210.133 469.333 469.333-210.176 469.333-469.333 469.333zM725.333 384h-170.667v-170.667h-85.333v170.667h-170.667v85.333h170.667v170.667h85.333v-170.667h170.667v-85.333z" />
<glyph unicode="&#xe805;" glyph-name="attachment_24" d="M897.877 778.71c-54.187 55.979-126.293 86.784-203.093 86.784v0c-76.8 0-148.949-30.805-203.136-86.784l-383.403-395.989c-87.125-90.027-87.125-236.544 0-326.571 42.667-44.075 99.499-68.352 160-68.309 60.501 0 117.333 24.277 160 68.352l286.677 296.149c63.403 65.493 63.403 172.032 0 237.483-31.104 32.128-72.619 49.877-116.864 49.877 0 0 0 0 0 0-44.245 0-85.76-17.707-116.907-49.877l-215.552-222.677 61.355-59.349 215.509 222.677c14.933 15.403 34.688 23.936 55.595 23.936s40.661-8.491 55.595-23.936c31.701-32.725 31.701-86.016 0-118.784l-286.677-296.192c-52.864-54.613-144.512-54.613-197.419 0-55.467 57.301-55.467 150.571 0 207.915l383.36 395.989c37.973 39.211 88.363 60.8 141.824 60.8v0c53.461 0 103.851-21.589 141.781-60.8 79.232-81.877 79.275-215.125 0.043-296.96l-312.277-322.517 61.312-59.392 312.277 322.56c110.976 114.56 110.976 301.013 0 415.616z" />
<glyph unicode="&#xe806;" glyph-name="audio-sound_24" d="M170.667 896v-938.667h682.667v938.667h-682.667zM512 768c47.104 0 85.333-38.229 85.333-85.376 0-47.104-38.229-85.291-85.333-85.291s-85.333 38.187-85.333 85.291c0 47.147 38.229 85.376 85.333 85.376zM512 85.334c-117.76 0-213.333 95.403-213.333 213.291 0 117.931 95.573 213.376 213.333 213.376s213.333-95.445 213.333-213.376c0-117.888-95.573-213.291-213.333-213.291zM597.333 298.667c0-47.128-38.205-85.333-85.333-85.333s-85.333 38.205-85.333 85.333c0 47.128 38.205 85.333 85.333 85.333s85.333-38.205 85.333-85.333z" />
<glyph unicode="&#xe807;" glyph-name="bookmark_24" d="M256 896v-938.667l256 256 256-256v938.667z" />
<glyph unicode="&#xe808;" glyph-name="chat-IM_24" d="M783.488 786.006c-69.461 67.968-165.461 109.995-271.488 109.995s-202.027-42.027-271.488-109.995c-69.504-67.925-112.512-170.325-112.512-274.005s43.008-189.013 112.512-256.896c69.461-67.968 165.461-110.037 271.488-110.037v-187.733l271.488 282.069c69.504 71.936 112.512 162.859 112.512 272.597 0 103.68-43.008 206.080-112.512 274.005zM319.957 426.667c-47.104 0-85.291 38.272-85.291 85.376s38.187 85.291 85.291 85.291c47.104 0 85.376-38.187 85.376-85.291s-38.272-85.376-85.376-85.376zM704.043 426.667c-47.104 0-85.376 38.272-85.376 85.376s38.272 85.291 85.376 85.291c47.104 0 85.291-38.187 85.291-85.291s-38.187-85.376-85.291-85.376zM512.043 426.667c-47.104 0-85.376 38.272-85.376 85.376s38.272 85.291 85.376 85.291c47.104 0 85.291-38.187 85.291-85.291s-38.187-85.376-85.291-85.376z" />
<glyph unicode="&#xe809;" glyph-name="cut_24" d="M853.333 512h-298.667v135.808c49.664 17.621 85.333 64.555 85.333 120.192 0 70.656-57.131 128-127.957 128-70.699 0-128.043-57.344-128.043-128 0-55.595 35.755-102.485 85.333-120.149v-139.776c-18.091-6.443-32.299-20.651-38.741-38.741h-139.733c-17.621 49.579-64.384 85.333-120.149 85.333-70.699 0-128.043-57.344-128.043-128s57.344-128 128.043-128c55.765 0 102.528 35.755 120.149 85.333h135.808v-298.667l128-128v426.667h426.667l-128 128zM170.667 384c-23.552 0-42.667 19.115-42.667 42.667s19.115 42.667 42.667 42.667 42.667-19.115 42.667-42.667-19.115-42.667-42.667-42.667zM512 725.334c-23.552 0-42.667 19.115-42.667 42.667s19.115 42.667 42.667 42.667 42.667-19.115 42.667-42.667-19.115-42.667-42.667-42.667z" />
<glyph unicode="&#xe80a;" glyph-name="document_24" d="M384 512h256v-85.333h-256v85.333zM597.333 896h-426.667v-938.667h682.667v682.667l-256 256zM768 42.667h-512v768h298.667v-213.333h213.333v-554.667zM384 341.334h256v-85.333h-256v85.333z" />
<glyph unicode="&#xe80b;" glyph-name="edit_24" d="M341.327 85.346l-170.669 170.669 469.318 469.318 170.669-170.669-469.318-469.318zM725.345 810.656l85.32 85.32 170.669-170.669-85.32-85.32-170.669 170.669zM42.667-42.666l156.501 62.549-93.952 93.952z" />
<glyph unicode="&#xe80c;" glyph-name="email_24" d="M512 810.667l-469.333-256v-512h938.667v512l-469.333 256zM512 207.147l-404.736 224.896 41.472 74.581 363.264-201.771 363.307 201.771 41.429-74.581-404.736-224.896z" />
<glyph unicode="&#xe80d;" glyph-name="file_24" d="M597.333 896h-426.667v-938.667h682.667v682.667l-256 256zM768 42.667h-512v768h298.667v-213.333h213.333v-554.667z" />
<glyph unicode="&#xe80e;" glyph-name="folder_24" d="M384 682.667v85.333h-341.333v-682.667h938.667v597.333z" />
<glyph unicode="&#xe80f;" glyph-name="help_24" d="M512 896c-259.243 0-469.333-210.091-469.333-469.333s210.091-469.333 469.333-469.333c259.157 0 469.333 210.091 469.333 469.333s-210.176 469.333-469.333 469.333zM896 426.667c0-71.552-20.011-138.325-54.229-195.712l-94.677 94.635c13.397 31.019 20.907 65.195 20.907 101.077s-7.509 70.059-20.864 101.077l94.677 94.635c34.176-57.387 54.187-124.16 54.187-195.712zM182.229 230.955c-34.219 57.387-54.229 124.203-54.229 195.712s20.011 138.325 54.229 195.712l94.677-94.677c-13.44-31.019-20.907-65.152-20.907-101.035s7.467-70.016 20.864-101.035l-94.635-94.677zM341.333 426.667c0 94.251 76.416 170.667 170.667 170.667 94.165 0 170.667-76.416 170.667-170.667s-76.501-170.667-170.667-170.667c-94.251 0-170.667 76.416-170.667 170.667zM707.712 756.438l-94.677-94.677c-31.019 13.44-65.152 20.907-101.035 20.907s-70.016-7.467-101.035-20.864l-94.677 94.635c57.387 34.219 124.203 54.229 195.712 54.229 71.552 0 138.283-20.011 195.712-54.229zM316.288 96.896l94.677 94.677c31.019-13.44 65.152-20.907 101.035-20.907s70.016 7.467 101.035 20.864l94.677-94.635c-57.429-34.219-124.16-54.229-195.712-54.229-71.509 0-138.325 20.011-195.712 54.229z" />
<glyph unicode="&#xe810;" glyph-name="home_24" d="M512 896l-469.333-469.333 128-128 3.029-341.333h679.637v341.333l128 128-469.333 469.333zM768 42.667h-512v341.333l256 256 256-256v-341.333z" />
<glyph unicode="&#xe811;" glyph-name="like-heart_24" d="M728.619 853.334c-92.075 0-172.459-55.509-216.619-128-44.16 72.491-124.544 128-216.619 128-139.605 0-252.715-111.403-252.715-248.875 0-68.779 27.477-131.755 72.192-177.792 101.632-104.491 397.141-426.667 397.141-426.667s295.509 322.176 397.141 426.667c44.715 46.037 72.192 109.013 72.192 177.792 0 137.472-113.109 248.875-252.715 248.875z" />
<glyph unicode="&#xe812;" glyph-name="link_24" d="M914.432 829.099c-41.301 41.301-98.432 66.901-161.536 66.901-63.061 0-120.149-25.6-161.451-66.901l-97.877-97.877c-41.301-41.344-66.901-98.389-66.901-161.451 0-24.192 4.523-47.317 11.221-69.504-21.888 6.955-44.8 11.733-68.992 11.733-63.061 0-120.149-25.6-161.451-66.901l-97.877-97.877c-41.301-41.344-66.901-98.389-66.901-161.451 0-63.104 23.979-121.813 65.237-163.157 41.344-41.301 100.096-65.28 163.2-65.28 63.061 0 120.149 25.6 161.451 66.901l97.877 97.877c41.301 41.344 66.901 98.389 66.901 161.451 0 24.192-4.779 47.061-11.733 68.949 22.187-6.656 45.312-11.179 69.504-11.179 63.061 0 120.149 25.6 161.451 66.901l97.877 97.877c41.301 41.344 66.901 98.389 66.901 161.451 0 63.104-25.6 120.235-66.901 161.536zM470.101 182.443l-97.877-97.877c-27.051-27.008-62.933-41.899-101.12-41.899-39.723 0-77.227 14.677-102.784 40.235-25.643 25.6-40.32 63.104-40.32 102.869 0 38.187 14.891 74.112 41.899 101.12l97.877 97.877c27.051 27.008 62.933 41.899 101.12 41.899 23.467 0 45.781-6.229 65.963-16.811l-123.691-123.691 60.331-60.331 123.691 123.691c10.581-20.181 16.811-42.453 16.811-65.963 0-38.187-14.891-74.069-41.899-101.12zM854.101 566.443l-97.877-97.877c-27.051-27.008-62.933-41.899-101.12-41.899-23.979 0-46.763 5.931-66.987 15.787l124.715 124.715-60.331 60.331-124.715-124.715c-9.856 20.181-15.787 43.008-15.787 66.987 0 38.187 14.891 74.112 41.899 101.12l97.877 97.877c27.051 27.008 62.933 41.899 101.12 41.899 38.229 0 74.155-14.891 101.205-41.899s41.899-62.976 41.899-101.205c0-38.187-14.891-74.069-41.899-101.12z" />
<glyph unicode="&#xe813;" glyph-name="location-map_24" d="M783.488 786.006c-69.333 67.883-165.291 109.995-271.488 109.995s-202.155-42.112-271.488-109.995c-69.419-67.797-112.512-161.664-112.512-265.472 0-109.696 43.093-209.237 112.512-281.216l271.488-281.984 271.488 281.984c69.419 71.979 112.512 171.52 112.512 281.216 0 103.808-43.093 197.675-112.512 265.472zM512 384c-70.869 0-128 57.173-128 128.043 0 70.784 57.131 127.957 128 127.957s128-57.173 128-127.957c0-70.869-57.131-128.043-128-128.043z" />
<glyph unicode="&#xe814;" glyph-name="lock-secure_24" d="M768 640c0 138.24-117.717 256-256 256-138.368 0-256-117.76-256-256v-116.181c-52.949-60.117-85.333-138.795-85.333-225.152 0-188.416 152.917-341.333 341.376-341.333s341.291 152.917 341.291 341.333c0 86.4-32.384 165.077-85.333 225.195v116.139zM341.333 640c0 90.923 79.744 170.667 170.667 170.667s170.667-79.744 170.667-170.667v-46.037c-50.261 29.141-108.416 46.037-170.624 46.037-62.251 0-120.448-16.939-170.709-46.080v46.080zM448 110.336l-158.165 158.165 60.331 60.331 97.835-97.835 225.835 225.835 60.331-60.331-286.165-286.165z" />
<glyph unicode="&#xe815;" glyph-name="next-right-forward_24" d="M512 896l-128-128 256-256h-597.333v-170.667h597.333l-256-256 128-128 469.333 469.333z" />
<glyph unicode="&#xe816;" glyph-name="phone-call_24" d="M768 896l-193.408-219.008 62.549-93.867-281.557-281.643-93.909 62.592-219.008-150.741 85.333-256c156.416 62.549 352.725 187.691 509.141 344.149 156.501 156.459 281.6 352.725 344.192 509.184l-213.333 85.333z" />
<glyph unicode="&#xe817;" glyph-name="print_24" d="M981.333 725.334h-128v170.667h-682.667v-170.667h-128v-341.333h128v-170.667l256-256h426.667v426.667h128v341.333zM256 810.667h512v-85.333h-512v85.333zM469.333 42.667v213.333h-213.333v256h512v-469.333h-298.667zM853.333 725.334v170.667h-682.667v-170.667h-128v-341.333h128v-170.667l256-256h426.667v426.667h128v341.333h-128zM768 42.667h-298.667v213.333h-213.333v256h512v-469.333zM768 725.334h-512v85.333h512v-85.333z" />
<glyph unicode="&#xe818;" glyph-name="rating-star_24" d="M512 176.384l-281.6-219.051 93.867 344.149-281.6 219.051 344.149 31.317 125.184 344.149 125.184-344.149 344.149-31.317-281.6-219.051 93.867-344.149z" />
<glyph unicode="&#xe819;" glyph-name="remove-delete_24" d="M512 896c-259.157 0-469.333-210.133-469.333-469.333s210.176-469.333 469.333-469.333 469.333 210.133 469.333 469.333-210.176 469.333-469.333 469.333zM725.333 384h-426.667v85.333h426.667v-85.333z" />
<glyph unicode="&#xe81a;" glyph-name="save_24" d="M42.667 896v-938.667h256v85.333h426.667v-85.333h85.333l170.667 170.667v768h-938.667zM512 213.334c-117.803 0-213.333 95.488-213.333 213.333s95.531 213.333 213.333 213.333 213.333-95.488 213.333-213.333-95.531-213.333-213.333-213.333zM597.333 426.667c0-47.128-38.205-85.333-85.333-85.333s-85.333 38.205-85.333 85.333c0 47.128 38.205 85.333 85.333 85.333s85.333-38.205 85.333-85.333z" />
<glyph unicode="&#xe81b;" glyph-name="search_24" d="M384 810.667c141.184 0 256-114.816 256-256s-114.816-256-256-256-256 114.816-256 256 114.816 256 256 256zM384 896c-188.501 0-341.333-152.832-341.333-341.333 0-188.459 152.832-341.333 341.333-341.333s341.333 152.875 341.333 341.333c0 188.501-152.832 341.333-341.333 341.333v0zM639.984 170.69l128.010 128.010 213.329-213.329-128.010-128.010-213.329 213.329z" />
<glyph unicode="&#xe81c;" glyph-name="settings-manage_24" d="M871.808 426.667c0 19.243-1.92 37.973-4.864 56.405l114.389 100.053-97.152 159.488-136.405-44.544c-32.597 28.373-70.315 50.773-111.659 66.005l-30.251 131.925h-187.733l-30.251-131.925c-41.301-15.232-79.061-37.675-111.659-66.048l-136.405 44.587-97.152-159.488 114.347-100.096c-2.901-18.389-4.821-37.12-4.821-56.363s1.92-37.973 4.821-56.363l-114.347-100.096 97.195-159.488 136.363 44.544c32.597-28.373 70.357-50.816 111.701-66.005l30.208-131.925h187.733l30.208 131.925c41.344 15.189 79.061 37.632 111.659 66.005l136.363-44.544 97.237 159.488-114.389 100.053c2.944 18.432 4.864 37.163 4.864 56.405zM512 298.667c-70.613 0-128 57.301-128 128s57.387 128 128 128 128-57.301 128-128-57.387-128-128-128z" />
<glyph unicode="&#xe81d;" glyph-name="unlock-nonsecure_24" d="M512.043 640c-62.251 0-120.448-16.939-170.709-46.080v46.080c0 90.923 79.744 170.667 170.667 170.667 45.44 0 88.107-19.925 119.467-51.243 20.608 20.608 41.344 41.344 60.416 60.416-46.72 46.763-110.72 76.16-179.883 76.16-138.368 0-256-117.76-256-256v-116.181c-52.949-60.117-85.333-138.795-85.333-225.152 0-188.416 152.917-341.333 341.376-341.333s341.291 152.917 341.291 341.333c0 188.459-152.832 341.333-341.291 341.333zM670.165 200.832l-60.331-60.331-97.835 97.835-97.835-97.835-60.331 60.331 97.835 97.835-97.835 97.835 60.331 60.331 97.835-97.835 97.835 97.835 60.331-60.331-97.835-97.835 97.835-97.835z" />
<glyph unicode="&#xe81e;" glyph-name="user-profile_24" d="M810.667 597.291c0-164.949-133.718-298.667-298.667-298.667s-298.667 133.718-298.667 298.667c0 164.949 133.718 298.667 298.667 298.667s298.667-133.718 298.667-298.667zM768 213.334h-512c-68.949 0-128-58.965-128-128v-128h768v128c0 69.035-59.008 128-128 128z" />
<glyph unicode="&#xe81f;" glyph-name="video_24" d="M42.667 768v-682.667h938.667v682.667h-938.667zM341.333 256v341.333l341.333-170.667-341.333-170.667z" />
<glyph unicode="&#xe820;" glyph-name="flag_fill" d="M943.543 938.667h-863.086v-1024h73.143v438.857h789.943l-285.257 292.571z" />
<glyph unicode="&#xe900;" glyph-name="close" d="M1033.062 802.738l-135.929 135.929-380.602-389.664-380.602 389.664-135.929-135.929 389.664-380.602-389.664-380.602 135.929-135.929 380.602 389.664 380.602-389.664 135.929 135.929-389.664 380.602z" />
</font>
</defs>
</svg>
