<?xml version="1.0" standalone="no"?>
<!DOCTYPE svg PUBLIC "-//W3C//DTD SVG 1.1//EN" "http://www.w3.org/Graphics/SVG/1.1/DTD/svg11.dtd" >
<svg xmlns="http://www.w3.org/2000/svg">
<metadata>Generated by IcoMoon</metadata>
<defs>
<font id="ibm-icons" horiz-adv-x="1024">
<font-face units-per-em="1024" ascent="960" descent="-64" />
<missing-glyph horiz-adv-x="1024" />
<glyph unicode="&#x20;" horiz-adv-x="512" d="" />
<glyph unicode="&#xe604;" glyph-name="down2_32" d="M64 448c0-246.4 201.6-448 448-448s448 201.6 448 448-201.6 448-448 448-448-201.6-448-448zM896 448c0-211.2-172.8-384-384-384s-384 172.8-384 384 172.8 384 384 384 384-172.8 384-384zM342.4 470.4l-44.8-44.8 214.4-214.4 214.4 214.4-44.8 44.8-137.6-137.6v371.2h-64v-371.2z" />
<glyph unicode="&#xe605;" glyph-name="up_32" d="M960 448c0 246.4-201.6 448-448 448s-448-201.6-448-448 201.6-448 448-448 448 201.6 448 448zM128 448c0 211.2 172.8 384 384 384s384-172.8 384-384-172.8-384-384-384-384 172.8-384 384zM681.6 425.6l44.8 44.8-214.4 214.4-214.4-214.4 44.8-44.8 137.6 137.6v-371.2h64v371.2z" />
<glyph unicode="&#xe606;" glyph-name="menuoverflow_vertical_32" d="M588.8 115.2c0-45.95-37.25-83.2-83.2-83.2s-83.2 37.25-83.2 83.2c0 45.95 37.25 83.2 83.2 83.2s83.2-37.25 83.2-83.2zM588.8 448c0-45.95-37.25-83.2-83.2-83.2s-83.2 37.25-83.2 83.2c0 45.95 37.25 83.2 83.2 83.2s83.2-37.25 83.2-83.2zM588.8 780.8c0-45.95-37.25-83.2-83.2-83.2s-83.2 37.25-83.2 83.2c0 45.95 37.25 83.2 83.2 83.2s83.2-37.25 83.2-83.2z" />
<glyph unicode="&#xe607;" glyph-name="info_question_32" d="M460.8 275.2h92.8v-89.6h-92.8v89.6zM518.4 704c-105.6 0-169.6-67.2-169.6-172.8h80c0 64 25.6 105.6 86.4 105.6 25.6 0 70.4-22.4 70.4-76.8 0-48-28.8-64-57.6-89.6-38.4-32-54.4-60.8-54.4-144h76.8c0 67.2 25.6 89.6 60.8 118.4 28.8 25.6 60.8 51.2 60.8 118.4 0 89.6-67.2 140.8-153.6 140.8zM512 896c-246.4 0-448-201.6-448-448s201.6-448 448-448 448 201.6 448 448-201.6 448-448 448zM512 64c-211.2 0-384 172.8-384 384s172.8 384 384 384 384-172.8 384-384-172.8-384-384-384z" />
<glyph unicode="&#xe608;" glyph-name="add-new_32" d="M544 672h-64v-192h-192v-64h192v-192h64v192h192v64h-192zM512 896c-247.392 0-448-200.608-448-448s200.608-448 448-448 448 200.608 448 448-200.608 448-448 448zM512 64c-211.744 0-384 172.256-384 384s172.256 384 384 384 384-172.256 384-384-172.256-384-384-384z" />
<glyph unicode="&#xe609;" glyph-name="back-left-previous_32" d="M512 896c-247.392 0-448-200.608-448-448s200.608-448 448-448 448 200.608 448 448-200.608 448-448 448zM512 64c-211.744 0-384 172.256-384 384s172.256 384 384 384 384-172.256 384-384-172.256-384-384-384zM534.624 617.376l-45.248 45.248-214.624-214.624 214.624-214.624 45.248 45.248-137.376 137.376h370.752v64h-370.752z" />
<glyph unicode="&#xe60a;" glyph-name="bottom_32" d="M192 96h640v-128h-640v128zM790.624 521.376l-45.248 45.248-201.376-201.408v530.784h-64v-530.72l-201.376 201.344-45.248-45.248 278.656-278.624z" />
<glyph unicode="&#xe60b;" glyph-name="close-cancel-error_32" d="M649.376 630.624l-137.376-137.376-137.376 137.376-45.248-45.248 137.376-137.376-137.376-137.376 45.248-45.248 137.376 137.376 137.376-137.376 45.248 45.248-137.376 137.376 137.376 137.376zM512 896c-247.392 0-448-200.608-448-448s200.608-448 448-448 448 200.608 448 448-200.608 448-448 448zM512 64c-211.744 0-384 172.256-384 384s172.256 384 384 384 384-172.256 384-384-172.256-384-384-384z" />
<glyph unicode="&#xe60c;" glyph-name="configure-manage_32" d="M411.456 736c-14.272 55.104-63.904 96-123.456 96s-109.184-40.896-123.456-96h-132.544v-64h132.544c14.272-55.104 63.904-96 123.456-96s109.184 40.896 123.456 96h580.544v64h-580.544zM288 672c-17.664 0-32 14.336-32 32s14.336 32 32 32 32-14.336 32-32-14.336-32-32-32zM736 576c-59.552 0-109.184-40.896-123.456-96h-580.544v-64h580.544c14.272-55.104 63.904-96 123.456-96s109.184 40.896 123.456 96h132.544v64h-132.544c-14.272 55.104-63.904 96-123.456 96zM736 416c-17.664 0-32 14.336-32 32s14.336 32 32 32 32-14.336 32-32-14.336-32-32-32zM288 320c-59.552 0-109.184-40.896-123.456-96h-132.544v-64h132.544c14.272-55.104 63.904-96 123.456-96s109.184 40.896 123.456 96h580.544v64h-580.544c-14.272 55.104-63.904 96-123.456 96zM288 160c-17.664 0-32 14.336-32 32s14.336 32 32 32 32-14.336 32-32-14.336-32-32-32z" />
<glyph unicode="&#xe60d;" glyph-name="create-new_32" d="M480 192h64v160h160v64h-160v160h-64v-160h-160v-64h160zM32 832v-768h960v768h-960zM928 128h-832v512h832v-512z" />
<glyph unicode="&#xe60e;" glyph-name="debug_32" d="M992 480h-65.632c-15.584 204.128-178.24 366.784-382.368 382.368v65.632h-64v-65.632c-204.128-15.584-366.784-178.24-382.368-382.368h-65.632v-64h65.632c15.584-204.128 178.24-366.784 382.368-382.368v-65.632h64v65.632c204.128 15.584 366.784 178.24 382.368 382.368h65.632v64zM862.368 480h-96.576c-14.464 115.712-106.048 207.328-221.792 221.792v96.576c168.576-15.264 303.104-149.792 318.368-318.368zM733.44 416c-14.080-97.888-91.552-175.328-189.44-189.44v125.44h-64v-125.44c-97.888 14.080-175.328 91.552-189.44 189.44h125.44v64h-125.44c14.080 97.888 91.552 175.328 189.44 189.44v-125.44h64v125.44c97.888-14.080 175.328-91.552 189.44-189.44h-125.44v-64h125.44zM480 798.368v-96.576c-115.744-14.464-207.328-106.080-221.792-221.792h-96.576c15.264 168.576 149.792 303.104 318.368 318.368zM161.632 416h96.576c14.464-115.712 106.048-207.328 221.792-221.792v-96.576c-168.576 15.264-303.104 149.792-318.368 318.368zM544 97.632v96.576c115.744 14.464 207.328 106.080 221.792 221.792h96.576c-15.264-168.576-149.792-303.104-318.368-318.368z" />
<glyph unicode="&#xe60f;" glyph-name="deploy_32" d="M982.624 694.624l-214.624 214.624-214.624-214.624 45.248-45.248 137.376 137.376v-434.752c0-176.448-143.552-320-320-320s-320 143.552-320 320c0 85.472 33.28 165.824 93.728 226.272l-45.248 45.248c-72.544-72.544-112.48-168.96-112.48-271.52 0-211.744 172.256-384 384-384s384 172.256 384 384v434.752l137.376-137.376 45.248 45.248zM512 352c0-53.019-42.981-96-96-96s-96 42.981-96 96c0 53.019 42.981 96 96 96s96-42.981 96-96z" />
<glyph unicode="&#xe610;" glyph-name="down_32" d="M480 672h64v-448h-64v448zM512 896c-247.392 0-448-200.608-448-448s200.608-448 448-448 448 200.608 448 448-200.608 448-448 448zM512 64c-211.744 0-384 172.256-384 384s172.256 384 384 384 384-172.256 384-384-172.256-384-384-384z" />
<glyph unicode="&#xe611;" glyph-name="download-import_32" d="M790.656 521.376l-45.248 45.28-201.408-201.44v530.784h-64v-530.72l-201.344 201.376-45.248-45.28 278.624-278.624zM928 352v-256h-832v256h-64v-384h960v384z" />
<glyph unicode="&#xe612;" glyph-name="edit_32" d="M703.994 832.012l96.007 96.007 191.992-191.992-96.007-96.007-191.992 191.992zM160 288l192-192 480 480-192 192-480-480zM352 186.528l-101.504 101.472 389.504 389.472 101.504-101.472-389.504-389.472zM32-32l160 64-96 96z" />
<glyph unicode="&#xe613;" glyph-name="filter_32" d="M992 928h-960v-128l384-384v-448l192 192v108.128c23.456-26.816 57.536-44.128 96-44.128 70.72 0 128 57.28 128 128s-57.28 128-128 128c-13.536 0-26.304-2.656-38.56-6.56l326.56 326.56v128zM768 352c0-35.296-28.736-64-64-64-35.296 0-64 28.704-64 64s28.704 64 64 64c35.264 0 64-28.704 64-64zM562.752 461.248l-18.752-18.72v-256l-64-64v320l-18.752 18.72-338.72 338.752h778.976l-338.752-338.752z" />
<glyph unicode="&#xe614;" glyph-name="info-moreinfo_32" d="M576 512h-192v-64h64v-192h-64v-64h256v64h-64zM576 640c0-35.346-28.654-64-64-64s-64 28.654-64 64c0 35.346 28.654 64 64 64s64-28.654 64-64zM512 896c-247.392 0-448-200.608-448-448s200.608-448 448-448 448 200.608 448 448-200.608 448-448 448zM512 64c-211.744 0-384 172.256-384 384s172.256 384 384 384 384-172.256 384-384-172.256-384-384-384z" />
<glyph unicode="&#xe615;" glyph-name="maximize_32" d="M32 832v-768h960v768h-960zM928 128h-832v512h832v-512zM598.624 265.376l201.376 201.376v-146.752h64v256h-256v-64h146.752l-201.376-201.376z" />
<glyph unicode="&#xe616;" glyph-name="migrate_32120820PM" d="M790.624 438.624l-45.248-45.248 105.376-105.376h-178.752v384l-256 256h-384v-960h640v256h178.752l-105.376-105.376 45.248-45.248 182.624 182.624-182.624 182.624zM608 32h-512v832h288v-224h224v-352h-224v-64h224v-192z" />
<glyph unicode="&#xe617;" glyph-name="minimize_32" d="M32 832v-768h960v768h-960zM96 768h832v-512h-832v512zM425.376 630.624l-201.376-201.376v146.752h-64v-256h256v64h-146.752l201.376 201.376z" />
<glyph unicode="&#xe618;" glyph-name="monitoring_32" d="M32 832v-768h960v768h-960zM928 128h-832v512h832v-512zM512 192c143.488 0 252.8 77.344 320 192-67.2 114.656-176.512 192-320 192s-252.8-77.344-320-192c67.2-114.656 176.512-192 320-192zM512 544c116.064 0 215.68-56.64 282.432-160-66.752-103.36-166.368-160-282.432-160s-215.68 56.64-282.432 160c66.752 103.36 166.368 160 282.432 160zM512 272c61.888 0 112 50.112 112 112s-50.112 112-112 112c-61.824 0-112-50.112-112-112s50.176-112 112-112zM512 421.344c20.672 0 37.312-16.704 37.312-37.344s-16.64-37.344-37.312-37.344-37.312 16.704-37.312 37.344 16.64 37.344 37.312 37.344z" />
<glyph unicode="&#xe619;" glyph-name="move_32" d="M384 416v64h-210.752l73.376 73.376-45.248 45.248-150.624-150.624 150.624-150.624 45.248 45.248-73.376 73.376zM822.624 598.624l-45.248-45.248 73.376-73.376h-210.752v-64h210.752l-73.376-73.376 45.248-45.248 150.624 150.624zM544 109.248v210.752h-64v-210.752l-73.376 73.376-45.248-45.248 150.624-150.624 150.624 150.624-45.248 45.248zM480 786.752v-210.752h64v210.752l73.376-73.376 45.248 45.248-150.624 150.624-150.624-150.624 45.248-45.248z" />
<glyph unicode="&#xe61a;" glyph-name="next-right-forward_32" d="M489.376 617.376l137.376-137.376h-370.752v-64h370.752l-137.376-137.376 45.248-45.248 214.624 214.624-214.624 214.624zM512 896c-247.392 0-448-200.608-448-448s200.608-448 448-448c247.392 0 448 200.608 448 448s-200.608 448-448 448zM512 64c-211.744 0-384 172.256-384 384s172.256 384 384 384c211.744 0 384-172.256 384-384s-172.256-384-384-384z" />
<glyph unicode="&#xe61b;" glyph-name="overview_32" d="M768 672c-60.992 0-116.224-24.448-156.64-64h-44.256c-11.104 19.040-31.488 32-55.136 32s-44.032-12.96-55.136-32h-44.256c-40.352 39.552-95.584 64-156.576 64-123.744 0-224-100.32-224-224s100.256-224 224-224 224 100.32 224 224h64c0-123.68 100.256-224 224-224s224 100.32 224 224-100.256 224-224 224zM256 288c-88.224 0-160 71.776-160 160s71.776 160 160 160 160-71.776 160-160-71.776-160-160-160zM768 288c-88.224 0-160 71.776-160 160s71.776 160 160 160 160-71.776 160-160-71.776-160-160-160z" />
<glyph unicode="&#xe61c;" glyph-name="pause_32" d="M512 896c-247.392 0-448-200.608-448-448s200.608-448 448-448 448 200.608 448 448-200.608 448-448 448zM512 64c-211.744 0-384 172.256-384 384s172.256 384 384 384 384-172.256 384-384-172.256-384-384-384zM352 608h128v-320h-128v320zM544 608h128v-320h-128v320z" />
<glyph unicode="&#xe61d;" glyph-name="play-demo-start_32" d="M512 896c-247.392 0-448-200.608-448-448s200.608-448 448-448 448 200.608 448 448-200.608 448-448 448zM512 64c-211.744 0-384 172.256-384 384s172.256 384 384 384 384-172.256 384-384-172.256-384-384-384zM352 256l384 192-384 192z" />
<glyph unicode="&#xe61e;" glyph-name="power-start_32" d="M576 730.24v197.76h-128v-197.76c-181.568-30.528-320-188-320-378.24 0-212.096 171.872-384 384-384s384 171.904 384 384c0 190.24-138.432 347.712-320 378.24zM512 32c-176.448 0-320 143.552-320 320 0 154.528 110.112 283.808 256 313.536v-313.536h128v313.536c145.888-29.728 256-159.008 256-313.536 0-176.448-143.552-320-320-320z" />
<glyph unicode="&#xe61f;" glyph-name="refresh-redo_32" d="M544 32c-176.448 0-320 143.552-320 320s143.552 320 320 320h210.752l-137.376-137.376 45.248-45.248 214.624 214.624-214.624 214.624-45.248-45.248 137.376-137.376h-210.752c-211.744 0-384-172.256-384-384s172.256-384 384-384c102.56 0 198.976 39.936 271.52 112.48l-45.248 45.248c-60.448-60.448-140.8-93.728-226.272-93.728z" />
<glyph unicode="&#xe620;" glyph-name="remove-delete_32" d="M288 480h448v-64h-448v64zM512 896c-247.392 0-448-200.608-448-448s200.608-448 448-448 448 200.608 448 448-200.608 448-448 448zM512 64c-211.744 0-384 172.256-384 384s172.256 384 384 384 384-172.256 384-384-172.256-384-384-384z" />
<glyph unicode="&#xe621;" glyph-name="remove-trash_32" d="M384 896h256v-64h-256v64zM192 800v-160h32v-640h576v640h32v160h-640zM736 64h-448v512h448v-512zM352 512h32v-384h-32v384zM448 512h32v-384h-32v384zM544 512h32v-384h-32v384zM640 512h32v-384h-32v384z" />
<glyph unicode="&#xe622;" glyph-name="reset-revert_32" d="M608 800c-211.744 0-384-172.256-384-384v-210.752l-137.376 137.376-45.248-45.248 214.624-214.624 214.624 214.624-45.248 45.248-137.376-137.376v210.752c0 176.448 143.552 320 320 320s320-143.552 320-320c0-85.472-33.28-165.824-93.728-226.272l45.248-45.248c72.544 72.544 112.48 168.96 112.48 271.52 0 211.744-172.256 384-384 384z" />
<glyph unicode="&#xe623;" glyph-name="restore_32" d="M608 832c-211.744 0-384-172.256-384-384v-274.752l-137.376 137.376-45.248-45.248 214.624-214.624 214.624 214.624-45.248 45.248-137.376-137.376v274.752c0 176.448 143.552 320 320 320s320-143.552 320-320-143.552-320-320-320v-64c211.744 0 384 172.256 384 384s-172.256 384-384 384zM649.376 361.376l45.248 45.248-52.704 52.704 169.408 169.344-22.656 22.656-169.344-169.376-84.704 84.672-45.248-45.248 84.704-84.704-41.408-41.344 22.656-22.656 41.344 41.408z" />
<glyph unicode="&#xe624;" glyph-name="retrieve_32120820PM" d="M384 224h256v-32h-256v32zM384 160h256v-32h-256v32zM768 32v384h-512v-384h-160v-64h832v64h-160zM320 32v320h384v-320h-384zM480 786.752v-306.752h64v306.752l105.376-105.376 45.248 45.248-182.624 182.624-182.624-182.624 45.248-45.248z" />
<glyph unicode="&#xe625;" glyph-name="run-running_32" d="M352 608c-88.352 0-160-71.648-160-160s71.648-160 160-160c88.352 0 160 71.648 160 160s-71.648 160-160 160zM352 384c-35.36 0-64 28.672-64 64s28.64 64 64 64c35.328 0 64-28.672 64-64s-28.672-64-64-64zM963.872 739.872c-17.376 17.344-41.376 28.128-67.872 28.128h-544c-88.352 0-168.352-35.808-226.272-93.728-57.92-57.888-93.728-137.888-93.728-226.272s35.808-168.384 93.728-226.272c57.92-57.92 137.92-93.728 226.272-93.728s168.224 35.936 226.272 93.728c0 0 0 0 0 0 0.064 0.064 0.096 0.096 0.128 0.16 96.352 95.936 385.44 382.24 385.44 382.24 17.44 17.344 28.16 41.344 28.16 67.872s-10.72 50.528-28.128 67.872zM533.152 267.136l-0.032-0.032c-48.64-48.448-112.96-75.104-181.12-75.104-68.384 0-132.672 26.624-181.024 74.976s-74.976 112.64-74.976 181.024 26.624 132.672 74.976 181.024c48.352 48.352 112.64 74.976 181.024 74.976 65.568 0 131.104-25.056 181.024-74.976 99.744-99.776 99.776-262.080 0.128-361.888zM668.224 401.248c14.208 96.704-15.52 198.592-89.952 273.056-11.008 10.976-22.752 20.64-34.848 29.696h262.4c-11.968-33.792-4.736-72.832 22.304-99.872 7.872-7.872 16.896-13.696 26.368-18.272-49.76-49.248-120.928-119.808-186.272-184.608zM896 640c-17.664 0-32 14.336-32 32s14.336 32 32 32c17.664 0 32-14.336 32-32s-14.336-32-32-32z" />
<glyph unicode="&#xe626;" glyph-name="search_32" d="M384 928c-194.368 0-352-157.632-352-352s157.632-352 352-352 352 157.632 352 352c0 194.368-157.632 352-352 352zM384 288c-158.784 0-288 129.216-288 288s129.216 288 288 288 288-129.216 288-288-129.216-288-288-288zM671.99 192.012l96.007 96.007 223.987-223.987-96.007-96.007-223.987 223.987zM704 288c0-17.673-14.327-32-32-32s-32 14.327-32 32c0 17.673 14.327 32 32 32s32-14.327 32-32z" />
<glyph unicode="&#xe627;" glyph-name="settings-manage_32" d="M880 448c0 19.68-1.984 38.816-4.96 57.664l116.96 102.336-99.36 163.136-139.488-45.568c-33.344 28.992-71.936 51.936-114.208 67.488l-30.944 134.944h-192l-30.912-134.944c-42.272-15.552-80.864-38.496-114.24-67.52l-139.488 45.6-99.36-163.136 116.96-102.368c-2.976-18.816-4.96-37.984-4.96-57.632 0-19.68 1.984-38.816 4.96-57.664l-116.96-102.336 99.392-163.136 139.456 45.568c33.344-29.024 71.968-51.968 114.24-67.52l30.912-134.912h192l30.912 134.944c42.272 15.552 80.864 38.496 114.208 67.488l139.488-45.568 99.392 163.136-116.96 102.304c2.976 18.848 4.96 38.016 4.96 57.696zM909.312 275.296l-44.992-73.856-125.824 41.088-27.36-23.808c-27.776-24.16-59.52-42.912-94.304-55.744l-32.544-12-7.744-33.792-19.552-85.184h-89.984l-19.52 85.248-7.744 33.792-32.544 12c-34.816 12.8-66.56 31.552-94.336 55.744l-27.392 23.776-125.792-41.12-44.992 73.856 102.976 90.144-5.504 34.88c-2.784 17.792-4.16 33.408-4.16 47.68s1.376 29.888 4.16 47.68l5.504 34.88-102.976 90.176 44.992 73.856 125.792-41.152 27.36 23.808c27.808 24.192 59.52 42.944 94.336 55.744l32.544 12 7.744 33.792 19.552 85.216h89.984l19.52-85.248 7.744-33.792 32.544-12c34.784-12.8 66.528-31.552 94.304-55.744l27.36-23.808 125.824 41.12 44.992-73.856-103.008-90.112 5.536-34.912c2.816-17.76 4.192-33.344 4.192-47.648s-1.376-29.92-4.192-47.68l-5.536-34.912 103.040-90.112zM512 640c-106.048 0-192-85.92-192-192s85.952-192 192-192c106.080 0 192 85.92 192 192s-85.92 192-192 192zM512 384c-35.328 0-64 28.672-64 64s28.672 64 64 64 64-28.672 64-64-28.672-64-64-64z" />
<glyph unicode="&#xe628;" glyph-name="stop_32" d="M512 896c-247.392 0-448-200.608-448-448s200.608-448 448-448 448 200.608 448 448-200.608 448-448 448zM512 64c-211.744 0-384 172.256-384 384s172.256 384 384 384 384-172.256 384-384-172.256-384-384-384zM352 608h320v-320h-320v320z" />
<glyph unicode="&#xe629;" glyph-name="success-confirmation_32" d="M448 365.248l-105.376 105.376-45.248-45.248 150.624-150.624 278.624 278.624-45.248 45.248zM512 896c-247.392 0-448-200.608-448-448s200.608-448 448-448 448 200.608 448 448-200.608 448-448 448zM512 64c-211.744 0-384 172.256-384 384s172.256 384 384 384 384-172.256 384-384-172.256-384-384-384z" />
<glyph unicode="&#xe62a;" glyph-name="top_32" d="M192 928h640v-128h-640v128zM233.376 374.624l45.248-45.248 201.376 201.408v-530.784h64v530.72l201.376-201.344 45.248 45.248-278.656 278.624z" />
<glyph unicode="&#xe62b;" glyph-name="upload-export_32" d="M480 786.752v-530.752h64v530.752l201.376-201.376 45.248 45.248-278.624 278.656-278.624-278.656 45.248-45.248zM928 352v-256h-832v256h-64v-384h960v384z" />
<glyph unicode="&#xe62c;" glyph-name="view_32" d="M512 608c-106.048 0-192-85.92-192-192s85.952-192 192-192c106.080 0 192 85.92 192 192s-85.92 192-192 192zM512 352c-35.392 0-64 28.64-64 64s28.608 64 64 64 64-28.64 64-64-28.64-64-64-64zM512 704c-215.392 0-379.296-116-480-288 100.704-172 264.608-288 480-288s379.328 116 480 288c-100.672 172-264.64 288-480 288zM512 192c-165.248 0-307.584 79.2-404.544 224 96.928 144.8 239.264 224 404.544 224s307.584-79.2 404.544-224c-96.96-144.8-239.296-224-404.544-224z" />
<glyph unicode="&#xe62d;" glyph-name="warning_32" d="M512 864l-480-832h960l-480 832zM512 735.936l369.184-639.936h-738.368l369.184 639.936zM480 512v-64l16-160h32l16 160v64zM544 224c0-17.673-14.327-32-32-32s-32 14.327-32 32c0 17.673 14.327 32 32 32s32-14.327 32-32z" />
<glyph unicode="&#xe62e;" glyph-name="zoomin_32" d="M384 928c-194.368 0-352-157.632-352-352s157.632-352 352-352c194.368 0 352 157.632 352 352s-157.632 352-352 352zM384 288c-158.784 0-288 129.216-288 288s129.216 288 288 288c158.784 0 288-129.216 288-288s-129.216-288-288-288zM671.99 192.012l96.007 96.007 223.987-223.987-96.007-96.007-223.987 223.987zM704 288c0-17.673-14.327-32-32-32s-32 14.327-32 32c0 17.673 14.327 32 32 32s32-14.327 32-32zM416 768h-64v-160h-160v-64h160v-160h64v160h160v64h-160z" />
<glyph unicode="&#xe62f;" glyph-name="zoomout_32" d="M384 928c-194.368 0-352-157.632-352-352s157.632-352 352-352c194.368 0 352 157.632 352 352s-157.632 352-352 352zM384 288c-158.816 0-288 129.216-288 288s129.184 288 288 288c158.816 0 288-129.216 288-288s-129.184-288-288-288zM671.99 192.012l96.007 96.007 223.987-223.987-96.007-96.007-223.987 223.987zM704 288c0-17.673-14.327-32-32-32s-32 14.327-32 32c0 17.673 14.327 32 32 32s32-14.327 32-32zM192 608h384v-64h-384v64z" />
<glyph unicode="&#xe630;" glyph-name="access-password-key_32" d="M800 928l-396.448-396.416c-26.432 8-54.496 12.416-83.552 12.416-159.072 0-288-128.928-288-288s128.928-288 288-288 288 128.928 288 288c0 29.088-4.416 57.12-12.448 83.584l76.448 76.416v64h64l256 256v192h-192zM928 762.528l-218.496-218.528h-101.504v-101.472l-84.832-84.8 11.136-36.704c6.432-21.184 9.696-43.040 9.696-65.024 0-123.52-100.512-224-224-224s-224 100.48-224 224 100.512 224 224 224c21.952 0 43.84-3.264 64.992-9.664l36.672-11.136 404.832 404.8h101.504v-101.472zM320 192c0-35.346-28.654-64-64-64s-64 28.654-64 64c0 35.346 28.654 64 64 64s64-28.654 64-64zM875.327 788.697l-191.992-191.992-22.627 22.627 191.992 191.992 22.627-22.627z" />
<glyph unicode="&#xe631;" glyph-name="activity_32" d="M672 498.752l137.376-137.376 45.248 45.248-182.624 182.624-320-320-137.376 137.376-45.248-45.248 182.624-182.624zM32 832v-768h960v768h-960zM928 128h-832v512h832v-512z" />
<glyph unicode="&#xe632;" glyph-name="admin_32" d="M512 288c176.736 0 320 143.264 320 320s-143.264 320-320 320-320-143.264-320-320 143.264-320 320-320zM512 864c141.152 0 256-114.848 256-256s-114.848-256-256-256-256 114.848-256 256 114.848 256 256 256zM768 224h-512c-70.688 0-128-57.312-128-128v-128h768v128c0 70.688-57.312 128-128 128zM678.624 681.376l-45.248 45.248-169.376-169.376-73.376 73.376-45.248-45.248 118.624-118.624z" />
<glyph unicode="&#xe633;" glyph-name="aligncenter_32120819PM" d="M160 768h704v-64h-704v64zM288 576h448v-64h-448v64zM96 384h832v-64h-832v64zM288 192h448v-64h-448v64z" />
<glyph unicode="&#xe634;" glyph-name="alignleft_32120819PM" d="M32 768h704v-64h-704v64zM32 576h448v-64h-448v64zM32 384h832v-64h-832v64zM32 192h448v-64h-448v64z" />
<glyph unicode="&#xe635;" glyph-name="alignright_32120819PM" d="M288 768h704v-64h-704v64zM544 576h448v-64h-448v64zM160 384h832v-64h-832v64zM544 192h448v-64h-448v64z" />
<glyph unicode="&#xe636;" glyph-name="api_32" d="M453.12 457.12c-3.424 0-5.728 0.96-6.88 2.88-1.184 1.92-1.76 5.12-1.76 9.6v85.12c0 8.768-1.92 16.16-5.76 22.24s-8.896 11.040-15.2 14.88c-6.304 3.84-13.408 6.624-21.28 8.32-7.904 1.696-15.904 2.56-24 2.56-9.184 0-18.112-0.864-26.88-2.56-8.736-1.696-16.608-4.672-23.52-8.96-6.944-4.288-12.64-9.92-17.12-16.96s-7.040-15.904-7.68-26.56h36.48c0.864 8.96 4.576 15.584 11.2 19.84s15.040 6.4 25.28 6.4c3.616 0 7.456-0.288 11.52-0.8 4.032-0.544 7.744-1.6 11.040-3.2s6.080-3.904 8.32-6.88c2.24-2.976 3.36-6.816 3.36-11.52 0-5.344-1.344-9.344-4-12s-6.304-4.64-10.88-5.92c-4.608-1.28-9.888-2.176-15.84-2.72-5.984-0.544-12.256-1.44-18.88-2.72-7.68-0.864-15.328-2.080-22.88-3.68-7.584-1.6-14.4-4.224-20.48-7.84-6.080-3.648-11.008-8.64-14.72-15.040-3.744-6.4-5.6-14.72-5.6-24.96 0-8.096 1.536-15.2 4.64-21.28s7.264-11.104 12.48-15.040c5.216-3.968 11.264-6.944 18.080-8.96s13.952-3.040 21.44-3.040c9.824 0 20 1.6 30.56 4.8s19.456 8.32 26.72 15.36c1.504-7.488 4.704-12.704 9.6-15.68s11.072-4.48 18.56-4.48c1.504 0 3.328 0.096 5.44 0.32s4.256 0.544 6.4 0.96c2.144 0.448 4.224 0.896 6.24 1.44s3.68 1.024 4.96 1.44v25.28c-1.92-0.416-3.616-0.64-5.12-0.64s-2.784 0-3.84 0zM408 488.512c0-5.76-1.376-10.624-4.16-14.56s-6.24-7.2-10.4-9.76c-4.16-2.56-8.608-4.384-13.28-5.44-4.672-1.088-9.056-1.6-13.12-1.6-3.2 0-6.752 0.32-10.72 0.96-3.936 0.64-7.552 1.76-10.88 3.36s-6.144 3.776-8.48 6.56c-2.336 2.752-3.52 6.176-3.52 10.24 0 4.672 0.8 8.672 2.4 12s3.776 5.952 6.56 8c2.752 2.016 5.952 3.616 9.6 4.8 3.616 1.184 7.36 2.080 11.2 2.72 8.096 1.504 16.192 2.624 24.32 3.36 8.096 0.736 14.944 2.944 20.48 6.56v-27.2zM629.44 576.96c-6.4 8-14.464 14.304-24.16 18.88s-21.088 6.88-34.080 6.88c-10.656 0-20.608-2.080-29.76-6.24-9.184-4.16-16.32-11.040-21.44-20.64h-0.64v22.4h-34.56v-226.56h36.48v82.56h0.64c2.752-4.48 6.24-8.384 10.4-11.68 4.16-3.328 8.672-6.048 13.6-8.16 4.896-2.112 10.016-3.68 15.36-4.64 5.312-0.96 10.656-1.44 16-1.44 12.16 0 22.72 2.4 31.68 7.2s16.384 11.2 22.24 19.2c5.856 8 10.24 17.216 13.12 27.68s4.32 21.248 4.32 32.32c0 12.16-1.6 23.552-4.8 34.24s-8 20-14.4 28zM609.76 494.080c-1.6-6.944-4.288-13.12-8-18.56-3.744-5.44-8.48-9.888-14.24-13.28s-12.8-5.12-21.12-5.12c-7.456 0-14.016 1.504-19.68 4.48s-10.528 7.040-14.56 12.16c-4.032 5.12-7.104 11.264-9.12 18.4s-3.040 14.88-3.040 23.2c0 17.696 3.904 31.904 11.68 42.56s19.36 16 34.72 16c7.456 0 14.080-1.664 19.84-4.96 5.76-3.328 10.56-7.68 14.4-13.12s6.72-11.68 8.64-18.72c1.92-7.040 2.88-14.272 2.88-21.76 0-7.232-0.8-14.336-2.4-21.28zM680.32 661.312h36.48v-34.56h-36.48v34.56zM680.32 598.24h36.48v-165.44h-36.48v165.44zM96 864v-832h832v832h-832zM160 800h704v-576h-704v576z" />
<glyph unicode="&#xe637;" glyph-name="applications_32" d="M806.144 441.856l-45.248 45.248c-30.016-30.016-64.928-53.664-103.744-71.072l-74.24 213.472c34.4 22.976 57.088 62.048 57.088 106.496 0 59.552-40.896 109.184-96 123.456v68.544h-64v-68.544c-55.104-14.272-96-63.904-96-123.456 0-44.448 22.688-83.52 57.088-106.496l-215.296-618.976 60.448-21.024 119.904 344.736c34.624-9.056 70.24-13.696 105.888-13.696s71.264 4.64 105.888 13.696l119.904-344.736 60.448 21.024-120 345.056c47.872 20.768 91.008 49.376 127.872 86.272zM512 768c17.664 0 32-14.336 32-32s-14.336-32-32-32c-17.664 0-32 14.336-32 32s14.336 32 32 32zM427.232 394.88l74.496 214.144c3.456-0.288 6.752-1.024 10.272-1.024s6.816 0.736 10.272 1.024l74.496-214.144c-55.552-13.728-113.984-13.728-169.536 0z" />
<glyph unicode="&#xe638;" glyph-name="archive-storage_32" d="M416 512h192v-64h-192v64zM32 800v-160h64v-544h192v32h448v-32h192v544h64v160h-960zM160 192v384h704v-384h-704z" />
<glyph unicode="&#xe639;" glyph-name="attachment_32120819PM" d="M256.096 0c-60.032 0-116.448 24.096-158.816 67.84-86.752 89.632-86.752 235.456 0 325.12l402.56 415.808c54.432 56.256 126.912 87.232 204.064 87.232s149.632-30.976 204.064-87.232c111.712-115.392 111.744-303.2 0.032-418.624l-327.904-338.688-45.952 44.544 327.904 338.656c87.936 90.848 87.936 238.72-0.032 329.6-42.304 43.68-98.464 67.744-158.112 67.744s-115.808-24.064-158.112-67.744l-402.528-415.808c-62.976-65.088-63.008-171.008 0-236.064 30.176-31.2 70.272-48.384 112.832-48.384s82.624 17.184 112.8 48.352l301.088 311.008c38.048 39.296 38.016 103.232 0 142.496-36.192 37.376-98.88 37.408-135.104 0.032l-226.4-233.856-45.984 44.544 226.368 233.824c30.24 31.264 70.592 48.48 113.504 48.48 42.944 0 83.264-17.216 113.536-48.48 61.792-63.84 61.824-167.68 0-231.52l-301.056-310.976c-42.304-43.808-98.72-67.904-158.752-67.904z" />
<glyph unicode="&#xe63a;" glyph-name="audio_32" d="M160 640v-384h224l288-288v960l-288-288h-224zM320 320h-96v256h96v-256zM704 544v-192c52.928 0 96 43.072 96 96s-43.072 96-96 96z" />
<glyph unicode="&#xe63b;" glyph-name="audio-sound_32" d="M160 928v-960h704v960h-704zM800 32h-576v832h576v-832zM512 96c123.712 0 224 100.288 224 224 0 123.68-100.288 224-224 224s-224-100.32-224-224c0-123.712 100.288-224 224-224zM512 384c35.328 0 64-28.672 64-64s-28.672-64-64-64-64 28.672-64 64 28.672 64 64 64zM576 704c0-35.346-28.654-64-64-64s-64 28.654-64 64c0 35.346 28.654 64 64 64s64-28.654 64-64z" />
<glyph unicode="&#xe63c;" glyph-name="barchart_32" d="M64 128v672h-32v-704h960v32zM128 448h224v-256h-224v256zM640 704h-224v-512h224v512zM576 256h-96v384h96v-384zM704 544h224v-32h-224v32zM704 480h224v-32h-224v32zM704 416h224v-32h-224v32zM704 352h224v-32h-224v32zM704 288h224v-32h-224v32zM704 224h224v-32h-224v32z" />
<glyph unicode="&#xe63d;" glyph-name="bee_32" d="M378.976 512h266.016c-28.672 38.56-77.536 64-133.024 64-55.456 0-104.288-25.44-132.992-64zM353.056 448c-0.672-5.248-1.056-10.592-1.056-16v-48h320v48c0 5.408-0.384 10.752-1.056 16h-317.888zM352 272c0-5.408 0.384-10.752 1.056-16h317.92c0.64 5.248 1.024 10.592 1.024 16v48h-320v-48zM512 128c55.488 0 104.32 25.44 133.024 64h-266.016c28.672-38.56 77.504-64 132.992-64zM103.36 478.432c-13.632-5.696-26.432-14.016-37.504-25.056-11.104-11.104-19.392-23.872-25.056-37.504-5.856-14.144-8.832-29.184-8.8-44.256-0.032-15.104 2.944-30.112 8.8-44.256 5.664-13.696 13.952-26.432 25.056-37.536 11.072-11.104 23.904-19.392 37.504-25.056 14.048-5.792 29.056-8.768 44.032-8.768 0.064 0 0.16 0 0.224 0s0.16 0 0.224 0c14.976 0 29.952 2.976 44.032 8.8 13.664 5.632 26.432 13.92 37.504 25.024s19.392 23.84 25.056 37.536l97.568 248.64-248.64-97.568zM224.864 339.616c-4.224-10.208-10.336-19.392-18.112-27.168-7.808-7.776-16.896-13.888-27.136-18.080-10.208-4.256-20.864-6.368-32.224-6.368-10.912 0-21.6 2.112-31.712 6.304-10.304 4.32-19.424 10.368-27.2 18.176-7.776 7.744-13.856 16.864-18.080 27.136-4.256 10.24-6.432 21.024-6.4 32.032-0.032 10.976 2.144 21.728 6.368 31.968 4.224 10.208 10.336 19.328 18.112 27.136 7.776 7.744 16.896 13.888 26.592 17.888l180.352 70.816-70.56-179.84zM983.2 415.872c-5.664 13.632-13.952 26.4-25.056 37.504-11.072 11.072-23.904 19.36-37.504 25.056l-248.64 97.568 97.568-248.64c5.664-13.696 13.984-26.432 25.056-37.536s23.84-19.392 37.504-25.024c14.080-5.824 29.056-8.8 44-8.8 0.064 0 0.16 0 0.224 0s0.16 0 0.224 0c14.976 0 29.984 2.976 44.032 8.768 13.6 5.664 26.432 13.952 37.504 25.056 11.104 11.104 19.392 23.84 25.056 37.536 5.888 14.144 8.832 29.184 8.832 44.256s-2.944 30.112-8.8 44.256zM953.632 339.584c-4.224-10.208-10.336-19.36-18.112-27.168-7.744-7.744-16.864-13.824-27.072-18.080-10.24-4.224-20.928-6.336-32.32-6.336-10.88 0-21.568 2.112-31.808 6.368-10.176 4.224-19.296 10.304-27.104 18.080s-13.888 16.928-17.92 26.592l-70.752 180.384 179.776-70.56c10.24-4.256 19.392-10.368 27.168-18.112 7.776-7.776 13.888-16.896 18.112-27.136s6.4-20.992 6.368-32.032c0.032-10.944-2.112-21.728-6.336-32zM432 608c35.328 0 64 28.608 64 64s-28.672 64-64 64c-35.36 0-64-28.608-64-64s28.64-64 64-64zM432 704c17.632 0 32-14.368 32-32s-14.368-32-32-32c-17.632 0-32 14.368-32 32s14.368 32 32 32zM592 608c35.328 0 64 28.608 64 64s-28.672 64-64 64c-35.36 0-64-28.608-64-64s28.64-64 64-64zM592 704c17.632 0 32-14.368 32-32s-14.368-32-32-32c-17.632 0-32 14.368-32 32s14.368 32 32 32z" />
<glyph unicode="&#xe63e;" glyph-name="blog_32" d="M480 544h-64l32 128h-64l-32-128v-128h128zM672 544h-64l32 128h-64l-32-128v-128h128zM96 864v-640l192-192h640v832h-832zM864 96h-544v160h-160v544h704v-704z" />
<glyph unicode="&#xe63f;" glyph-name="bold_32120819PM" d="M736 448c68.032 39.936 128 106.72 128 187.168 0 124.512-90.624 228.832-224 228.832h-480v-832h480c133.376 0 224 104.32 224 228.832 0 80.448-59.968 147.232-128 187.168zM480 96h-128v320h128c95.36 0 160-70.56 160-161.664s-64.64-158.336-160-158.336zM480 480h-128v320h128c95.36 0 160-70.56 160-161.664s-64.64-158.336-160-158.336z" />
<glyph unicode="&#xe640;" glyph-name="bulletlist_32120819PM" d="M256 768h736v-64h-736v64zM256 480h736v-64h-736v64zM256 192h736v-64h-736v64zM160 736c0-35.346-28.654-64-64-64s-64 28.654-64 64c0 35.346 28.654 64 64 64s64-28.654 64-64zM160 448c0-35.346-28.654-64-64-64s-64 28.654-64 64c0 35.346 28.654 64 64 64s64-28.654 64-64zM160 160c0-35.346-28.654-64-64-64s-64 28.654-64 64c0 35.346 28.654 64 64 64s64-28.654 64-64z" />
<glyph unicode="&#xe641;" glyph-name="copy_32120819PM" d="M672 736v192h-512v-768h192v-192h512v768h-192zM352 224h-128v640h384v-128h-256v-512zM800 32h-384v640h384v-640zM480 544h256v-32h-256v32zM480 480h256v-32h-256v32zM480 416h256v-32h-256v32zM480 352h128v-32h-128v32z" />
<glyph unicode="&#xe642;" glyph-name="cut_32120819PM" d="M864 544h-320v132.544c55.104 14.272 96 63.904 96 123.456 0 70.688-57.312 128-128 128s-128-57.312-128-128c0-59.552 40.896-109.184 96-123.456v-132.544c-35.392 0-64-28.64-64-64h-132.544c-14.272 55.104-63.904 96-123.456 96-70.688 0-128-57.312-128-128s57.312-128 128-128c59.552 0 109.184 40.896 123.456 96h132.544v-320l128-128v448h448l-128 128zM160 384c-35.296 0-64 28.672-64 64s28.704 64 64 64 64-28.672 64-64-28.704-64-64-64zM480 448c-17.696 0-32 14.336-32 32s14.304 32 32 32c17.664 0 32-14.336 32-32s-14.336-32-32-32zM512 736c-35.328 0-64 28.672-64 64s28.672 64 64 64 64-28.64 64-64-28.672-64-64-64z" />
<glyph unicode="&#xe643;" glyph-name="indent_32120819PM" d="M73.376 585.376l137.376-137.376-137.376-137.376 45.248-45.248 182.624 182.624-182.624 182.624zM352 768h64v-640h-64v640zM480 672h384v-64h-384v64zM480 544h256v-64h-256v64zM480 416h512v-64h-512v64zM480 288h256v-64h-256v64z" />
<glyph unicode="&#xe644;" glyph-name="insert_32120820PM" d="M937.376 246.624l-137.376-137.376v434.752c0 211.744-172.256 384-384 384s-384-172.256-384-384h64c0 176.448 143.552 320 320 320s320-143.552 320-320v-434.752l-137.376 137.376-45.248-45.248 214.624-214.624 214.624 214.624-45.248 45.248z" />
<glyph unicode="&#xe645;" glyph-name="italic_32120820PM" d="M800 800v64h-384v-64h125.536l-203.072-704h-114.464v-64h384v64h-141.536l203.072 704z" />
<glyph unicode="&#xe646;" glyph-name="justify_32120820PM" d="M160 192h704v-64h-704v64zM160 384h704v-64h-704v64zM160 576h704v-64h-704v64zM160 768h704v-64h-704v64z" />
<glyph unicode="&#xe647;" glyph-name="link-externallink_32120820PM" d="M926.4 862.4c-40.544 40.512-96.544 65.6-158.4 65.6s-117.856-25.088-158.4-65.6l-96-96c-40.512-40.544-65.6-96.544-65.6-158.4 0-38.592 9.152-75.488 25.856-107.648l-14.176-14.176c-32.192 16.672-69.088 25.824-107.68 25.824-61.856 0-117.856-25.088-158.4-65.6l-96-96c-40.512-40.544-65.6-96.544-65.6-158.4s25.088-117.856 65.6-158.4 96.544-65.6 158.4-65.6 117.856 25.088 158.4 65.6l96 96c40.512 40.544 65.6 96.544 65.6 158.4 0 38.592-9.152 75.488-25.856 107.648l14.176 14.176c32.192-16.672 69.088-25.824 107.68-25.824 61.856 0 117.856 25.088 158.4 65.6l96 96c40.512 40.544 65.6 96.544 65.6 158.4s-25.088 117.856-65.6 158.4zM512 288c0-42.72-16.64-82.912-46.848-113.152l-96-96c-30.24-30.208-70.432-46.848-113.152-46.848s-82.912 16.64-113.152 46.848c-30.208 30.24-46.848 70.432-46.848 113.152s16.64 82.912 46.848 113.152l96 96c30.24 30.208 70.432 46.848 113.152 46.848 20.544 0 40.448-3.904 58.88-10.624l-136.128-136.128 90.496-90.496 136.128 136.128c6.72-18.432 10.624-38.336 10.624-58.88zM881.152 590.848l-96-96c-30.24-30.208-70.432-46.848-113.152-46.848-20.544 0-40.448 3.904-58.88 10.624l136.128 136.128-90.496 90.496-136.128-136.128c-6.72 18.432-10.624 38.336-10.624 58.88 0 42.72 16.64 82.912 46.848 113.152l96 96c30.24 30.208 70.432 46.848 113.152 46.848s82.912-16.64 113.152-46.848c30.208-30.24 46.848-70.432 46.848-113.152s-16.64-82.912-46.848-113.152z" />
<glyph unicode="&#xe648;" glyph-name="numberlist_32120820PM" d="M256 768h736v-64h-736v64zM256 480h736v-64h-736v64zM256 192h736v-64h-736v64zM96 832h-64v-32h32v-128h-32v-32h96v32h-32zM96 480v-32h32v64h-32zM64 448h32v-32h-32v32zM32 384v-32h96v32h-64v32h-32zM64 544h-32v-32h64v32zM96 224h32v-32h-32v32zM64 192h32v-32h-32v32zM96 96h32v64h-32v-32zM32 96v-32h64v32h-32zM64 256h-32v-32h64v32z" />
<glyph unicode="&#xe649;" glyph-name="outdent_32120820PM" d="M233.344 630.656l-182.624-182.656 182.624-182.592 45.248 45.248-137.344 137.344 137.344 137.376zM352 768h64v-640h-64v640zM480 672h384v-64h-384v64zM480 544h256v-64h-256v64zM480 416h512v-64h-512v64zM480 288h256v-64h-256v64z" />
<glyph unicode="&#xe64a;" glyph-name="paste_32120820PM" d="M672 736v192h-512v-768h192v-192h512v768h-192zM800 32h-384v640h384v-640zM480 544h256v-32h-256v32zM480 480h256v-32h-256v32zM480 416h256v-32h-256v32zM480 352h128v-32h-128v32z" />
<glyph unicode="&#xe64b;" glyph-name="print_32120820PM" d="M832 768v160h-640v-160h-128v-384h128v-160l256-256h384v416h128v384h-128zM256 864h512v-96h-512v96zM480 32v224h-224v256h512v-480h-288z" />
<glyph unicode="&#xe64c;" glyph-name="save_32120820PM" d="M96 864v-832h704l128 128v704h-832zM864 186.528l-90.496-90.528h-69.504v64h-384v-64h-160v704h704v-613.472zM512 256c106.016 0 192 85.984 192 192s-85.984 192-192 192-192-85.952-192-192 85.952-192 192-192zM512 512c35.328 0 64-28.672 64-64s-28.672-64-64-64-64 28.672-64 64 28.672 64 64 64z" />
<glyph unicode="&#xe64d;" glyph-name="spellcheck_32120820PM" d="M218.624 428.16v103.328c0 12.032-2.688 21.696-8.064 28.96-5.376 7.328-12.288 12.992-20.736 17.088s-17.792 6.848-28.032 8.256c-10.24 1.408-20.352 2.112-30.336 2.112-11.008 0-21.952-1.088-32.832-3.296-10.88-2.144-20.672-5.824-29.376-10.944s-15.872-11.904-21.504-20.352c-5.632-8.448-8.832-19.072-9.6-31.872h54.528c1.024 10.752 4.608 18.432 10.752 23.040 6.144 4.64 14.592 6.944 25.344 6.944 4.864 0 9.408-0.352 13.632-0.96 4.224-0.672 7.936-1.952 11.136-3.84s5.76-4.576 7.68-8.064c1.92-3.456 2.88-8.128 2.88-14.048 0.256-5.632-1.408-9.92-4.992-12.832-3.584-2.976-8.448-5.184-14.592-6.72s-13.184-2.688-21.12-3.456c-7.968-0.736-16-1.792-24.192-3.072s-16.32-3.040-24.384-5.184c-8.064-2.176-15.232-5.44-21.504-9.792-6.272-4.384-11.392-10.176-15.36-17.504-3.968-7.264-5.952-16.544-5.952-27.808 0-10.24 1.728-19.104 5.184-26.496 3.456-7.456 8.256-13.6 14.4-18.432 6.144-4.864 13.312-8.448 21.504-10.752s17.024-3.456 26.496-3.456c12.288 0 24.32 1.824 36.096 5.376 11.776 3.584 22.016 9.856 30.72 18.816 0.256-3.328 0.704-6.592 1.344-9.792s1.472-6.336 2.496-9.408h55.296c-2.56 4.096-4.352 10.24-5.376 18.432s-1.536 16.768-1.536 25.728zM164.096 460.8c0-3.104-0.32-7.2-0.96-12.32s-2.368-10.144-5.184-15.168c-2.816-4.992-7.168-9.28-13.056-12.864-5.888-3.552-14.208-5.376-24.96-5.376-4.352 0-8.576 0.416-12.672 1.152-4.096 0.768-7.68 2.112-10.752 4.032s-5.504 4.576-7.296 7.872c-1.792 3.328-2.688 7.424-2.688 12.288 0 5.12 0.896 9.344 2.688 12.672 1.792 3.296 4.16 6.048 7.104 8.256 2.944 2.176 6.4 3.904 10.368 5.184s8 2.304 12.096 3.072c4.352 0.8 8.704 1.44 13.056 1.952s8.512 1.152 12.48 1.92c3.968 0.768 7.68 1.728 11.136 2.88s6.336 2.752 8.64 4.8v-20.352zM312.704 409.344h0.768c5.888-11.008 14.592-18.816 26.112-23.424s24.576-6.912 39.168-6.912c9.984 0 19.84 2.048 29.568 6.144s18.496 10.368 26.304 18.816c7.808 8.448 14.144 19.264 19.008 32.448s7.296 28.864 7.296 47.072c0 18.144-2.432 33.856-7.296 47.040s-11.2 24-19.008 32.448c-7.808 8.48-16.576 14.72-26.304 18.816s-19.584 6.144-29.568 6.144c-12.288 0-24.128-2.368-35.52-7.104s-20.416-12.256-27.072-22.464h-0.768v99.84h-54.528v-274.208h51.84v25.344zM316.16 507.264c1.792 7.68 4.608 14.464 8.448 20.384 3.84 5.888 8.704 10.56 14.592 14.016s12.8 5.184 20.736 5.184c8.192 0 15.168-1.728 20.928-5.184 5.76-3.424 10.56-8.128 14.4-14.016 3.84-5.92 6.656-12.704 8.448-20.384 1.792-7.648 2.688-15.712 2.688-24.192 0-8.192-0.896-16.128-2.688-23.808-1.792-7.648-4.608-14.432-8.448-20.352-3.84-5.888-8.64-10.56-14.4-14.016s-12.736-5.184-20.928-5.184c-7.936 0-14.848 1.728-20.736 5.184-5.888 3.424-10.752 8.128-14.592 14.016-3.84 5.92-6.688 12.704-8.448 20.352-1.792 7.68-2.688 15.616-2.688 23.808 0 8.448 0.896 16.512 2.688 24.192zM516.992 407.424c8.704-8.96 19.264-15.936 31.68-20.928s26.048-7.488 40.896-7.488c26.368 0 48 6.912 64.896 20.768 16.896 13.824 27.136 33.92 30.72 60.288h-52.608c-1.792-12.288-6.208-22.112-13.248-29.376-7.040-7.296-17.088-10.944-30.144-10.944-8.448 0-15.616 1.92-21.504 5.76s-10.56 8.768-14.016 14.784c-3.456 6.048-5.952 12.736-7.488 20.16s-2.304 14.72-2.304 21.92c0 7.392 0.768 14.912 2.304 22.464 1.536 7.52 4.16 14.432 7.872 20.736 3.712 6.272 8.512 11.392 14.4 15.36s13.184 5.952 21.888 5.952c23.296 0 36.736-11.392 40.32-34.176h53.376c-0.768 12.8-3.84 23.872-9.216 33.216s-12.352 17.152-20.928 23.424c-8.576 6.272-18.304 10.944-29.184 14.016-10.88 3.104-22.208 4.64-33.984 4.64-16.128 0-30.464-2.688-43.008-8.064s-23.168-12.864-31.872-22.464c-8.704-9.6-15.328-20.992-19.776-34.176-4.48-13.184-6.72-27.424-6.72-42.816 0-14.848 2.432-28.48 7.296-40.864 4.864-12.544 11.648-23.232 20.352-32.192zM896 512l-352-352-160 160-96-96 256-256 448 448z" />
<glyph unicode="&#xe64e;" glyph-name="table-tables_32120820PM" d="M32 832v-768h960v768h-960zM608 416h-512v224h512v-224zM96 128v224h512v-224h-512zM928 128h-256v224h256v-224zM928 416h-256v224h256v-224z" />
<glyph unicode="&#xe64f;" glyph-name="textcolor_32120820PM" d="M192 160h640v-192h-640v192zM396.8 352h230.4l44.8-128h128l-224 640h-128l-224-640h128l44.8 128zM512 681.152l70.4-201.152h-140.8l70.4 201.152z" />
<glyph unicode="&#xe650;" glyph-name="underline_32120820PM" d="M224 96h576v-64h-576v64zM672 864v-416c0-88.384-71.616-160-160-160s-160 71.616-160 160v416h-128v-416c0-159.072 128.928-288 288-288s288 128.928 288 288v416h-128z" />
<glyph unicode="&#xe651;" glyph-name="booklet-guide_32" d="M672 736l-320 64-320-64v-704l320 64 320-64 320 64v704l-320-64zM640 166.4l-256 51.2v510.752l256-51.232v-510.72zM96 683.52l224 44.768v-510.688l-224-44.8v510.72zM704 166.4v510.72l224 44.8v-510.72l-224-44.8z" />
<glyph unicode="&#xe652;" glyph-name="bookmark_32" d="M256 928h-128v-960h768v960h-640zM832 32h-512v832h192v-448l128 128 128-128v448h64v-832z" />
<glyph unicode="&#xe653;" glyph-name="calendar_32" d="M540.576 387.776c-11.040-9.696-23.136-18.752-36.32-27.136-13.184-8.48-25.824-17.152-37.984-26.080-25.28-17.248-45.216-37.504-59.84-60.768-14.624-23.328-22.112-50.624-22.432-81.792h255.456v54.88h-182.24c2.496 8.224 7.104 16 13.952 23.36 6.688 7.392 14.656 14.432 23.68 21.28 9.152 6.816 19.008 13.6 29.696 20.416 10.72 6.816 21.408 13.984 32.128 21.472 10.656 7.52 21.024 15.648 31.008 24.256 9.888 8.64 18.848 18.016 26.656 28.192 7.872 10.24 14.112 21.408 18.752 33.6 4.608 12.192 6.912 25.888 6.912 40.896 0 12.16-1.984 25.024-5.856 38.464-3.936 13.44-10.656 25.856-20.096 37.408-9.408 11.424-21.824 20.96-37.12 28.48-15.264 7.52-34.4 11.296-57.184 11.296-20.992 0-39.488-3.712-55.328-11.040-15.872-7.328-29.28-17.472-40.384-30.368-11.040-12.928-19.328-28.224-24.8-46.016-5.536-17.728-8.32-37.056-8.32-57.792h60.896c0.416 13.216 1.728 25.6 4 37.12 2.368 11.456 5.92 21.376 10.72 29.824 4.768 8.448 11.232 15.072 19.232 19.904 8 4.768 18.048 7.296 30.176 7.296 13.184 0 23.84-2.272 32.064-6.752 8.192-4.512 14.624-10.080 19.232-16.672 4.608-6.656 7.744-13.792 9.376-21.536 1.568-7.712 2.368-14.976 2.368-21.76-0.352-14.688-4.064-27.712-11.264-39.008-7.008-11.232-16.064-21.76-27.136-31.424zM32 832v-768h960v768h-960zM928 128h-832v512h832v-512z" />
<glyph unicode="&#xe654;" glyph-name="camera_32" d="M352 768v64h-192v-64h-128v-640h960v640h-640zM928 192h-832v512h832v-512zM672 240c114.944 0 208 93.056 208 208s-93.056 208-208 208c-114.784 0-208-93.056-208-208s93.216-208 208-208zM672 624c97.056 0 176-78.944 176-176s-78.944-176-176-176c-97.056 0-176 78.944-176 176s78.944 176 176 176zM672 336c61.888 0 112 50.112 112 112s-50.112 112-112 112c-61.824 0-112-50.112-112-112s50.176-112 112-112zM672 480c17.664 0 32-14.304 32-32s-14.336-32-32-32c-17.664 0-32 14.304-32 32s14.336 32 32 32z" />
<glyph unicode="&#xe655;" glyph-name="cart-checkout_32" d="M813.248 576l-214.624 214.624-45.248-45.248 169.376-169.376h-421.504l169.376 169.376-45.248 45.248-214.624-214.624h-178.752v-96h64l64-480h704l64 480h64v96h-178.752zM807.968 64h-591.936l-46.944 352h685.824l-46.944-352zM352 352h32v-224h-32v224zM448 352h32v-224h-32v224zM544 352h32v-224h-32v224zM640 352h32v-224h-32v224z" />
<glyph unicode="&#xe656;" glyph-name="catalog_32" d="M672 864c-64 0-128-32-160-64-32 32-96 64-160 64h-256v-768h256c64 0 128-32 160-64 32 32 96 64 160 64h256v768h-256zM512 112.512c-42.976 26.72-100.192 47.488-160 47.488h-192v640h192c43.488 0 92.512-23.008 114.752-45.248l45.248-45.28v-596.96zM832 320h-224v32h224v-32zM832 416h-224v32h224v-32zM832 512h-224v32h224v-32zM832 608h-224v32h224v-32z" />
<glyph unicode="&#xe657;" glyph-name="chat-im_32" d="M783.488 815.52c-69.472 69.504-165.472 112.48-271.488 112.48s-202.048-42.976-271.488-112.48c-69.504-69.504-112.512-165.472-112.512-271.52s43.008-202.016 112.512-271.52c69.44-69.504 165.44-112.48 271.488-112.48v-192l271.488 288.512c69.504 73.568 112.512 175.232 112.512 287.488 0 106.048-43.008 202.016-112.512 271.52zM736.864 300.384l-160.864-170.976v94.592h-64c-85.472 0-165.824 33.28-226.24 93.76-60.448 60.416-93.76 140.768-93.76 226.24s33.312 165.824 93.76 226.272 140.768 93.728 226.24 93.728 165.824-33.28 226.24-93.76c60.448-60.416 93.76-140.768 93.76-226.24 0-92.192-33.76-178.656-95.136-243.616zM560 544c0-26.51-21.49-48-48-48s-48 21.49-48 48c0 26.51 21.49 48 48 48s48-21.49 48-48zM720 544c0-26.51-21.49-48-48-48s-48 21.49-48 48c0 26.51 21.49 48 48 48s48-21.49 48-48zM400 544c0-26.51-21.49-48-48-48s-48 21.49-48 48c0 26.51 21.49 48 48 48s48-21.49 48-48z" />
<glyph unicode="&#xe658;" glyph-name="client_32" d="M608 800l-64-32 128-192h-544v-96h416v-32h-512v-96h512v-32h-416v-96h416v-32h-320v-96h512l256 64v416z" />
<glyph unicode="&#xe659;" glyph-name="clock-time_32" d="M512 896c-247.424 0-448-200.576-448-448s200.576-448 448-448c247.424 0 448 200.576 448 448s-200.576 448-448 448zM512 64c-211.744 0-384 172.256-384 384s172.256 384 384 384c211.744 0 384-172.256 384-384s-172.256-384-384-384zM724.672 683.328l-201.376-201.376-116.672 116.672-45.248-45.248 116.672-116.704-41.376-41.344 22.624-22.656 41.376 41.408 52.704-52.704 45.248 45.248-52.704 52.704 201.376 201.344z" />
<glyph unicode="&#xe65a;" glyph-name="cloud_32" d="M846.272 556.672c-14.176 138.144-128.96 243.328-270.272 243.328-133.184 0-246.112-98.656-267.968-226.752-11.936 1.824-23.968 2.752-36.032 2.752-132.352 0-240-107.648-240-240s107.648-240 240-240h480c132.352 0 240 107.648 240 240 0 97.152-57.728 183.264-145.728 220.672zM752 160h-480c-97.056 0-176 78.944-176 176s78.944 176 176 176c18.4 0 36.672-2.944 54.368-8.672l40.864-13.312 1.024 43.008c2.688 111.904 95.872 202.976 207.744 202.976 113.664 0 204.896-89.088 207.712-202.816l0.544-22.752 21.632-6.944c73.024-23.456 122.112-90.784 122.112-167.488 0-97.056-78.944-176-176-176z" />
<glyph unicode="&#xe65b;" glyph-name="code_32" d="M274.752 685.248l-237.28-237.248 237.28-237.248 90.496 90.496-146.72 146.752 146.72 146.752zM749.248 685.248l-90.496-90.496 146.72-146.752-146.72-146.752 90.496-90.496 237.28 237.248z" />
<glyph unicode="&#xe65c;" glyph-name="collaborate-group_32" d="M256 224c88.384 0 160 71.616 160 160s-71.616 160-160 160-160-71.616-160-160 71.616-160 160-160zM256 480c52.928 0 96-43.072 96-96s-43.072-96-96-96-96 43.072-96 96 43.072 96 96 96zM608 384c0-88.384 71.616-160 160-160s160 71.616 160 160-71.616 160-160 160-160-71.616-160-160zM768 480c52.928 0 96-43.072 96-96s-43.072-96-96-96-96 43.072-96 96 43.072 96 96 96zM672 736c0 88.384-71.616 160-160 160s-160-71.616-160-160 71.616-160 160-160 160 71.616 160 160zM512 640c-52.928 0-96 43.072-96 96s43.072 96 96 96 96-43.072 96-96-43.072-96-96-96zM384 160h-256c-35.36 0-64-28.672-64-64v-96h384v96c0 35.328-28.672 64-64 64zM896 160h-256c-35.328 0-64-28.672-64-64v-96h384v96c0 35.328-28.672 64-64 64z" />
<glyph unicode="&#xe65d;" glyph-name="commandline-terminal_32" d="M246.624 201.376l182.624 182.624-182.624 182.624-45.248-45.248 137.376-137.376-137.376-137.376zM32 832v-768h960v768h-960zM928 128h-832v512h832v-512z" />
<glyph unicode="&#xe65e;" glyph-name="compass_32" d="M512 768c-176.704 0-320-143.328-320-320 0-176.736 143.296-320 320-320 176.736 0 320 143.264 320 320 0 176.672-143.264 320-320 320zM576 384l-256-128 128 256 256 128-128-256zM512 896c-247.424 0-448-200.576-448-448s200.576-448 448-448 448 200.576 448 448-200.576 448-448 448zM512 64c-211.744 0-384 172.256-384 384s172.256 384 384 384 384-172.256 384-384-172.256-384-384-384zM544 448c0-17.673-14.327-32-32-32s-32 14.327-32 32c0 17.673 14.327 32 32 32s32-14.327 32-32z" />
<glyph unicode="&#xe65f;" glyph-name="compressed_32" d="M96 864v-832h832v832h-832zM160 800h704v-576h-704v576zM480 672h64v-32h-64v32zM480 736h64v-32h-64v32zM480 608h64v-32h-64v32zM480 544h64v-32h-64v32zM480 480l-32-128v-64h128v64l-32 128z" />
<glyph unicode="&#xe660;" glyph-name="dashboard_32" d="M398.88 270.88c-30.208 30.208-46.88 70.4-46.88 113.12 0 88.224 71.776 160 160 160s160-71.776 160-160c0-42.72-16.672-82.912-46.88-113.12l45.248-45.248c42.304 42.304 65.632 98.528 65.632 158.368 0 123.52-100.512 224-224 224s-224-100.48-224-224c0-59.84 23.328-116.064 65.632-158.368l45.248 45.248zM480 160h64l-32 288zM32 832v-768h960v768h-960zM928 128h-832v512h832v-512z" />
<glyph unicode="&#xe661;" glyph-name="data_32" d="M32 672h64v-448h-64v448zM449.952 596.672c-11.68 21.92-28 40-48.928 54.144-20.96 14.112-47.968 21.184-80.992 21.184-33.088 0-60.096-7.072-80.992-21.216-20.96-14.144-37.28-32.224-48.928-54.144-11.68-21.984-19.616-46.080-23.808-72.32-4.224-26.272-6.304-51.712-6.304-76.32s2.080-50.048 6.272-76.288c4.192-26.272 12.128-50.368 23.808-72.32 11.648-21.984 27.968-40 48.928-54.144 20.928-14.176 47.936-21.248 81.024-21.248 33.024 0 60.032 7.072 80.96 21.248 20.928 14.144 37.248 32.192 48.928 54.144 11.648 21.92 19.584 46.048 23.776 72.32 4.256 26.24 6.304 51.68 6.304 76.288s-2.048 50.048-6.272 76.32c-4.192 26.24-12.128 50.336-23.776 72.352zM400.672 384c-2.656-20.064-7.2-37.632-13.568-52.608s-15.072-26.88-26.112-35.68c-11.008-8.832-24.672-13.216-40.928-13.216-16.768 0-30.592 4.416-41.344 13.216-10.816 8.8-19.424 20.704-25.824 35.68s-10.912 32.544-13.536 52.608c-2.656 20.096-3.968 41.44-3.968 64s1.312 43.808 3.968 63.712c2.624 19.904 7.136 37.44 13.536 52.64 6.368 15.168 15.008 27.168 25.824 36 10.752 8.832 24.576 13.216 41.344 13.216 16.288 0 29.92-4.416 40.928-13.216 11.072-8.8 19.744-20.832 26.112-36 6.368-15.2 10.912-32.736 13.568-52.64s3.968-41.152 3.968-63.712c-0.032-22.56-1.312-43.904-3.968-64zM985.728 524.32c-4.192 26.24-12.128 50.336-23.776 72.32-11.68 21.92-28 40-48.928 54.144-20.96 14.144-47.968 21.216-80.992 21.216-33.088 0-60.096-7.072-80.992-21.216-20.96-14.144-37.28-32.224-48.928-54.144-11.68-21.984-19.616-46.080-23.808-72.32-4.224-26.272-6.304-51.712-6.304-76.32s2.080-50.048 6.272-76.288c4.192-26.272 12.128-50.368 23.808-72.32 11.648-21.984 27.968-40 48.928-54.144 20.928-14.176 47.936-21.248 81.024-21.248 33.024 0 60.032 7.072 80.96 21.248 20.928 14.144 37.248 32.192 48.928 54.144 11.648 21.92 19.584 46.048 23.776 72.32 4.224 26.24 6.304 51.68 6.304 76.288s-2.080 50.048-6.272 76.32zM912.672 384c-2.656-20.064-7.2-37.632-13.568-52.608s-15.072-26.88-26.112-35.68c-11.008-8.832-24.672-13.216-40.928-13.216-16.768 0-30.592 4.416-41.344 13.216-10.816 8.8-19.424 20.704-25.824 35.68s-10.912 32.544-13.536 52.608c-2.656 20.096-3.968 41.44-3.968 64s1.312 43.808 3.968 63.712c2.624 19.904 7.136 37.44 13.536 52.64 6.368 15.168 15.008 27.168 25.824 36 10.752 8.832 24.576 13.216 41.344 13.216 16.288 0 29.952-4.416 40.928-13.216 11.072-8.8 19.744-20.832 26.112-36 6.368-15.2 10.912-32.736 13.568-52.64s3.968-41.152 3.968-63.712c0-22.56-1.312-43.904-3.968-64zM544 672h64v-448h-64v448z" />
<glyph unicode="&#xe662;" glyph-name="database-server_32" d="M96 864v-832h832v832h-832zM864 96h-704v192h704v-192zM864 352h-704v192h704v-192zM768 736c17.664 0 32-14.336 32-32s-14.336-32-32-32-32 14.336-32 32 14.336 32 32 32zM800 448c0-17.673-14.327-32-32-32s-32 14.327-32 32c0 17.673 14.327 32 32 32s32-14.327 32-32zM800 192c0-17.673-14.327-32-32-32s-32 14.327-32 32c0 17.673 14.327 32 32 32s32-14.327 32-32z" />
<glyph unicode="&#xe663;" glyph-name="document_32" d="M576 928h-384v-960h640v704l-256 256zM768 32h-512v832h288v-224h224v-608zM320 544h384v-32h-384v32zM320 480h384v-32h-384v32zM320 416h192v-32h-192v32z" />
<glyph unicode="&#xe664;" glyph-name="email_32" d="M512 832l-480-256v-512h960v512l-480 256zM224 608h576v-134.4l-288-153.6-288 153.6v134.4zM928 128h-832v381.888l416-221.888 416 221.888v-381.888z" />
<glyph unicode="&#xe665;" glyph-name="event-announcement_32" d="M128 521.152v22.848h-32v32h-64v-256h64v32h32v22.848l64-18.272v-100.576c0-35.328 28.672-64 64-64h128c35.328 0 64 28.672 64 64v27.424l544-155.424v640l-864-246.848zM384 256h-128v82.272l128-36.576v-45.696zM928 212.832l-768 219.456v31.424l768 219.424v-470.304z" />
<glyph unicode="&#xe666;" glyph-name="file_32" d="M576 928h-384v-960h640v704l-256 256zM768 32h-512v832h288v-224h224v-608z" />
<glyph unicode="&#xe667;" glyph-name="fileextension_32" d="M446.848 274.432c-4.96 6.496-11.2 11.68-18.688 15.616-7.52 3.904-16.48 5.856-26.88 5.856-8.192 0-15.712-1.632-22.528-4.864-6.816-3.264-12.48-8.448-16.896-15.616h-0.512v16.928h-34.56v-178.72h36.352v62.72h0.512c4.448-6.496 10.112-11.36 17.024-14.72 6.912-3.328 14.464-4.96 22.656-4.96 9.728 0 18.208 1.888 25.472 5.632s13.312 8.768 18.176 15.104c4.864 6.304 8.48 13.568 10.88 21.792 2.4 8.192 3.584 16.672 3.584 25.568 0 9.408-1.216 18.4-3.584 27.040-2.4 8.576-6.048 16.128-11.008 22.624zM423.552 210.176c-1.024-5.12-2.784-9.632-5.248-13.44-2.464-3.872-5.728-6.976-9.728-9.376-4-2.368-8.992-3.552-14.976-3.552-5.792 0-10.752 1.184-14.848 3.552-4.096 2.4-7.392 5.504-9.856 9.376-2.496 3.808-4.256 8.32-5.376 13.44s-1.664 10.304-1.664 15.616c0 5.44 0.512 10.752 1.536 15.84 1.024 5.12 2.784 9.664 5.248 13.6 2.464 3.904 5.696 7.136 9.728 9.568 4 2.496 8.992 3.744 14.976 3.744 5.792 0 10.72-1.248 14.72-3.744 4-2.432 7.296-5.696 9.856-9.696 2.56-4.032 4.416-8.608 5.504-13.728 1.12-5.12 1.664-10.336 1.664-15.584 0-5.28-0.512-10.464-1.536-15.616zM510.592 290.176c-7.36-3.84-13.44-8.928-18.304-15.264-4.864-6.304-8.544-13.632-11.008-21.888-2.496-8.288-3.712-16.864-3.712-25.76 0-9.184 1.248-18.048 3.712-26.624 2.464-8.512 6.144-16.064 11.008-22.624 4.864-6.592 11.040-11.808 18.56-15.616 7.52-3.84 16.224-5.76 26.112-5.76 8.704 0 16.512 1.568 23.424 4.704 6.912 3.168 12.512 8.352 16.768 15.456h0.512v-16.8h34.56v182.784h-36.352v-66.56h-0.512c-4.096 6.464-9.696 11.424-16.768 14.72-7.104 3.296-14.56 4.992-22.4 4.992-9.728 0-18.272-1.92-25.6-5.76zM560.768 264.928c3.936-2.368 7.136-5.504 9.6-9.312 2.496-3.84 4.224-8.288 5.248-13.312 1.024-5.056 1.536-10.304 1.536-15.744 0-5.472-0.512-10.752-1.536-15.872s-2.72-9.696-5.12-13.696c-2.4-4-5.6-7.232-9.6-9.632-4-2.368-8.992-3.552-14.976-3.552-5.632 0-10.464 1.248-14.464 3.68-4 2.496-7.328 5.76-9.984 9.76-2.624 4-4.576 8.544-5.76 13.696-1.216 5.12-1.792 10.24-1.792 15.36 0 5.44 0.544 10.688 1.664 15.744 1.12 4.992 2.912 9.504 5.376 13.44 2.496 3.904 5.76 7.072 9.856 9.44 4.096 2.4 9.12 3.616 15.104 3.616 5.984 0.032 10.912-1.216 14.848-3.616zM647.552 160h36.352v108.032h25.088v24.352h-25.088v7.904c0 5.472 1.056 9.344 3.2 11.648 2.112 2.304 5.664 3.456 10.624 3.456 4.608 0 9.056-0.256 13.312-0.736v27.104c-3.072 0.192-6.24 0.384-9.472 0.64s-6.496 0.384-9.728 0.384c-14.848 0-25.92-3.744-33.28-11.296-7.328-7.488-11.008-17.12-11.008-28.896v-10.208h-21.76v-24.352h21.76v-108.032zM576 928h-384v-960h640v704l-256 256zM768 32h-512v832h288v-224h224v-608z" />
<glyph unicode="&#xe668;" glyph-name="flow_32" d="M768 352c-77.408 0-141.92-54.976-156.768-128h-198.432c-4.16 20.416-12.288 39.36-23.392 56.128l290.496 290.464c25.248-16.736 55.488-26.592 88.096-26.592 88.384 0 160 71.616 160 160s-71.616 160-160 160c-77.408 0-141.92-54.976-156.768-128h-198.432c-14.848 73.024-79.392 128-156.8 128-88.384 0-160-71.616-160-160s71.616-160 160-160c77.408 0 141.952 54.976 156.768 128h198.432c4.16-20.416 12.288-39.36 23.392-56.128l-290.496-290.464c-25.248 16.736-55.488 26.592-88.096 26.592-88.384 0-160-71.616-160-160s71.616-160 160-160c77.408 0 141.952 54.976 156.768 128h198.432c14.848-73.024 79.392-128 156.768-128 88.384 0 160 71.616 160 160s-71.584 160-159.968 160zM768 800c53.024 0 96-42.976 96-96s-42.976-96-96-96-96 42.976-96 96 42.976 96 96 96zM256 608c-53.024 0-96 42.976-96 96s42.976 96 96 96 96-42.976 96-96-42.976-96-96-96zM256 96c-53.024 0-96 42.976-96 96s42.976 96 96 96 96-42.976 96-96-42.976-96-96-96z" />
<glyph unicode="&#xe669;" glyph-name="folder_32" d="M416 704v96h-384v-704h960v608h-576zM928 160h-832v448h832v-448z" />
<glyph unicode="&#xe66a;" glyph-name="forum_32" d="M879.488 815.52c-69.472 69.504-165.472 112.48-271.488 112.48s-202.048-42.976-271.488-112.48c-69.504-69.504-112.512-165.472-112.512-271.52 0-33.44 4.736-65.728 12.736-96.64-4.192 0.288-8.416 0.64-12.736 0.64-52.992 0-100.992-21.504-135.744-56.256-34.752-34.72-56.256-82.72-56.256-135.744 0-56.128 21.504-106.976 56.256-143.744l135.744-144.256v96c52.992 0 100.992 21.504 135.744 56.256 25.44 25.408 43.616 57.984 51.648 94.336 57.536-34.432 124.672-54.592 196.608-54.592v-192l271.488 288.512c69.504 73.568 112.512 175.232 112.512 287.488 0 106.048-43.008 202.016-112.512 271.52zM832.864 300.384l-160.864-170.976v94.592h-64c-71.68 0-139.552 23.68-195.328 66.88-7.2 39.008-25.984 73.952-52.928 100.864-14.432 14.432-31.264 26.4-49.664 35.68-14.336 36.672-22.080 76-22.080 116.576 0 85.472 33.312 165.824 93.76 226.272s140.768 93.728 226.24 93.728 165.824-33.28 226.24-93.76c60.448-60.416 93.76-140.768 93.76-226.24 0-92.192-33.76-178.656-95.136-243.616zM656 544c0-26.51-21.49-48-48-48s-48 21.49-48 48c0 26.51 21.49 48 48 48s48-21.49 48-48zM816 544c0-26.51-21.49-48-48-48s-48 21.49-48 48c0 26.51 21.49 48 48 48s48-21.49 48-48zM496 544c0-26.51-21.49-48-48-48s-48 21.49-48 48c0 26.51 21.49 48 48 48s48-21.49 48-48z" />
<glyph unicode="&#xe66b;" glyph-name="gauge_32" d="M512 896c-247.424 0-448-200.576-448-448s200.576-448 448-448 448 200.576 448 448-200.576 448-448 448zM512 64c-211.744 0-384 172.256-384 384s172.256 384 384 384 384-172.256 384-384-172.256-384-384-384zM480 416l64-64 192 320-320-192z" />
<glyph unicode="&#xe66c;" glyph-name="glasses_32" d="M992 480h-34.88c-15.296 90.752-94.112 160-189.12 160-37.632 0-72.64-11.008-102.272-29.76l-4.352 4.352c-41.28 37.024-94.304 57.408-149.376 57.408s-108.096-20.384-150.624-58.592l-3.136-3.136c-29.632 18.72-64.608 29.728-102.24 29.728-95.040 0-173.856-69.248-189.12-160h-34.88v-64h34.88c15.264-90.752 94.080-160 189.12-160 105.952 0 192 85.984 192 192 0 45.216-15.744 86.688-41.92 119.488 29.408 26.080 66.976 40.512 105.92 40.512 39.264 0 77.12-14.56 105.376-39.84l0.608-0.608c-26.24-32.8-41.984-74.304-41.984-119.552 0-106.016 86.080-192 192-192 95.040 0 173.856 69.248 189.12 160h34.88v64zM256 320c-70.56 0-128 57.44-128 128s57.44 128 128 128 128-57.44 128-128-57.44-128-128-128zM768 320c-70.56 0-128 57.44-128 128s57.44 128 128 128 128-57.44 128-128-57.44-128-128-128z" />
<glyph unicode="&#xe66d;" glyph-name="hat_32" d="M896 224v224c0 212.064-172 384-384 384s-384-171.936-384-384v-224h-96c0-88.512 71.712-160 159.84-160h640.32c88.128 0 159.84 71.488 159.84 160h-96zM192 224v192h640v-192h-640z" />
<glyph unicode="&#xe66e;" glyph-name="headphones_32" d="M864 416v-128h64v128h-32v48c0 211.744-172.256 384-384 384s-384-172.256-384-384v-48h-32v-128h64v176c0 194.080 157.92 352 352 352s352-157.92 352-352v-48zM32 256h128v-288h-128v288zM864 256h128v-288h-128v288z" />
<glyph unicode="&#xe66f;" glyph-name="help_32" d="M512 896c-247.392 0-448-200.608-448-448s200.608-448 448-448 448 200.608 448 448-200.608 448-448 448zM736 448c0-28.576-5.568-55.776-15.328-80.896-22.752-58.528-69.248-104.992-127.744-127.744-25.12-9.792-52.352-15.36-80.928-15.36s-55.808 5.568-80.928 15.328c-58.496 22.752-104.992 69.248-127.744 127.744-9.76 25.152-15.328 52.352-15.328 80.928s5.568 55.776 15.328 80.864c22.752 58.528 69.28 105.056 127.744 127.808 25.152 9.76 52.352 15.328 80.928 15.328s55.776-5.568 80.928-15.328c58.464-22.72 104.992-69.28 127.744-127.808 9.76-25.088 15.328-52.288 15.328-80.864zM617.152 681.152c-32.128 14.56-67.648 22.848-105.152 22.848s-73.024-8.288-105.152-22.848l-94.336 94.336c58.24 35.616 126.368 56.512 199.488 56.512s141.248-20.896 199.488-56.512l-94.336-94.336zM278.848 342.848l-94.336-94.336c-35.616 58.208-56.512 126.368-56.512 199.488s20.896 141.28 56.512 199.488l94.336-94.336c-14.528-32.128-22.848-67.648-22.848-105.152s8.32-73.024 22.848-105.152zM406.848 214.848c32.128-14.56 67.648-22.848 105.152-22.848s73.024 8.288 105.152 22.848l94.336-94.336c-58.24-35.616-126.368-56.512-199.488-56.512s-141.248 20.896-199.488 56.512l94.336 94.336zM745.152 553.152l94.336 94.336c35.616-58.208 56.512-126.368 56.512-199.488s-20.896-141.28-56.512-199.488l-94.336 94.336c14.528 32.128 22.848 67.648 22.848 105.152s-8.32 73.024-22.848 105.152z" />
<glyph unicode="&#xe670;" glyph-name="home_32" d="M512 928l-448-448 96-96v-416h704v416l96 96-448 448zM800 32h-576v416l288 288 288-288v-416zM576 448c0-35.346-28.654-64-64-64s-64 28.654-64 64c0 35.346 28.654 64 64 64s64-28.654 64-64z" />
<glyph unicode="&#xe671;" glyph-name="idea_32" d="M512 928c-194.432 0-352-157.568-352-352s157.568-352 352-352 352 157.568 352 352-157.568 352-352 352zM512 288c-158.816 0-288 129.216-288 288s129.184 288 288 288 288-129.216 288-288-129.184-288-288-288zM384 192h256v-128h-256v128zM512-32c35.328 0 64 28.672 64 64h-128c0-35.328 28.672-64 64-64zM512 352l128 192h-256l128-192zM512 409.696l-68.224 102.304h136.448l-68.224-102.304z" />
<glyph unicode="&#xe672;" glyph-name="industry-factory_32" d="M928 928h-128l-32-480h-224v128l-256-128v128l-256-128v-480h960l-64 960zM96 32v352h667.744l-23.488-352h-644.256z" />
<glyph unicode="&#xe673;" glyph-name="inventory_32" d="M768 480v384h-512v-384h-160v-448h832v448h-160zM320 800h384v-320h-384v320zM864 96h-704v320h704v-320zM384 672h256v-32h-256v32zM384 608h256v-32h-256v32zM608 256h-192v32h-32v-64h256v64h-32z" />
<glyph unicode="&#xe674;" glyph-name="like-heart_32" d="M704 832c-81.632 0-152.832-43.808-192-109.056-39.168 65.248-110.368 109.056-192 109.056-123.712 0-224-100.288-224-224 0-61.856 24.352-118.592 64-160 90.080-94.080 352-384 352-384s261.92 289.92 352 384c39.648 41.408 64 98.144 64 160 0 123.712-100.288 224-224 224zM817.792 492.256c-67.168-70.112-225.824-244.64-305.792-332.896-79.968 88.224-238.624 262.752-305.792 332.896-29.792 31.136-46.208 72.224-46.208 115.744 0 88.224 71.776 160 160 160 56.576 0 107.808-29.152 137.12-77.984l54.88-91.424 54.88 91.424c29.312 48.832 80.544 77.984 137.12 77.984 88.224 0 160-71.776 160-160 0-43.52-16.416-84.608-46.208-115.744z" />
<glyph unicode="&#xe675;" glyph-name="location-map_32" d="M783.488 815.52c-69.472 69.504-165.472 112.48-271.488 112.48-106.048 0-202.048-42.976-271.488-112.48-69.504-69.504-112.512-165.472-112.512-271.52 0-112.256 43.008-213.92 112.512-287.488l271.488-288.512 271.488 288.512c69.504 73.568 112.512 175.232 112.512 287.488 0 106.048-43.008 202.016-112.512 271.52zM736.896 300.384l-224.896-238.976-224.992 239.072c-61.248 64.864-95.008 151.328-95.008 243.52 0 85.472 33.28 165.824 93.76 226.272 60.416 60.448 140.768 93.728 226.24 93.728s165.824-33.28 226.24-93.76c60.448-60.416 93.76-140.768 93.76-226.24 0-92.192-33.76-178.656-95.104-243.616zM640 544c0-70.692-57.308-128-128-128s-128 57.308-128 128c0 70.692 57.308 128 128 128s128-57.308 128-128z" />
<glyph unicode="&#xe676;" glyph-name="lock-secure_32" d="M464 269.248l-73.376 73.376-45.248-45.248 118.624-118.624 214.624 214.624-45.248 45.248zM768 561.088v110.912c0 141.376-114.592 256-256 256s-256-114.624-256-256v-110.944c-59.36-63.008-96-147.68-96-241.056 0-194.368 157.632-352 352-352 194.432 0 352 157.632 352 352 0 93.408-36.64 178.048-96 241.088zM320 672c0 105.888 86.112 192 192 192s192-86.112 192-192v-57.216c-55.264 36.064-121.12 57.216-192 57.216s-136.736-21.152-192-57.216v57.216zM512 32c-159.072 0-288 128.928-288 288s128.928 288 288 288 288-128.928 288-288-128.928-288-288-288z" />
<glyph unicode="&#xe677;" glyph-name="log_32" d="M192 32h640v-64h-640v64zM192 928v-832h640v832h-640zM768 160h-512v576h512v-576zM320 480h384v-32h-384v32zM320 608h384v-32h-384v32zM320 352h384v-32h-384v32z" />
<glyph unicode="&#xe678;" glyph-name="menuoverflow_32" d="M224 448c0-53.019-42.981-96-96-96s-96 42.981-96 96c0 53.019 42.981 96 96 96s96-42.981 96-96zM608 448c0-53.019-42.981-96-96-96s-96 42.981-96 96c0 53.019 42.981 96 96 96s96-42.981 96-96zM992 448c0-53.019-42.981-96-96-96s-96 42.981-96 96c0 53.019 42.981 96 96 96s96-42.981 96-96z" />
<glyph unicode="&#xe679;" glyph-name="microphone-recording_32" d="M512 224c123.68 0 224 100.32 224 224v256c0 123.68-100.32 224-224 224s-224-100.32-224-224v-256c0-123.68 100.32-224 224-224zM416 512h-64v32h64c17.696 0 32 14.304 32 32s-14.304 32-32 32h-64v32h64c17.696 0 32 14.304 32 32s-14.304 32-32 32h-64c0 88.224 71.776 160 160 160s160-71.776 160-160h-64c-17.696 0-32-14.304-32-32s14.304-32 32-32h64v-32h-64c-17.696 0-32-14.304-32-32s14.304-32 32-32h64v-32h-64c-17.696 0-32-14.304-32-32s14.304-32 32-32h64c0-88.224-71.776-160-160-160s-160 71.776-160 160h64c17.696 0 32 14.304 32 32s-14.304 32-32 32zM832 448h-64c0-141.152-114.848-256-256-256s-256 114.848-256 256h-64c0-165.664 126.528-302.24 288-318.368v-97.632h-96v-64h256v64h-96v97.632c161.472 16.128 288 152.704 288 318.368z" />
<glyph unicode="&#xe67a;" glyph-name="mobile_32" d="M224 928v-960h576v960h-576zM736 736v-576h-448v576h448zM448 864h128v-32h-128v32z" />
<glyph unicode="&#xe67b;" glyph-name="music_32" d="M352 800v-544.736c-26.816 20.256-59.808 32.736-96 32.736-88.352 0-160-71.616-160-160s71.648-160 160-160 160 71.616 160 160v526.208l448 99.552v-370.528c-26.816 20.288-59.808 32.768-96 32.768-88.352 0-160-71.616-160-160s71.648-160 160-160 160 71.616 160 160v672l-576-128zM256 32c-52.928 0-96 43.072-96 96s43.072 96 96 96 96-43.072 96-96-43.072-96-96-96zM768 160c-52.928 0-96 43.072-96 96s43.072 96 96 96 96-43.072 96-96-43.072-96-96-96z" />
<glyph unicode="&#xe67c;" glyph-name="musicfile_32" d="M96 864v-832h832v832h-832zM160 800h704v-576h-704v576zM416 672v-248.928c-16.992 15.328-39.328 24.928-64 24.928-52.96 0-96-43.008-96-96s43.040-96 96-96 96 43.008 96 96v261.824l288 52.384v-179.136c-16.992 15.328-39.328 24.928-64 24.928-52.96 0-96-43.008-96-96s43.040-96 96-96 96 43.008 96 96v352l-352-64v-32zM352 288c-35.264 0-64 28.704-64 64s28.736 64 64 64 64-28.704 64-64-28.736-64-64-64zM672 352c-35.296 0-64 28.704-64 64s28.704 64 64 64 64-28.736 64-64-28.704-64-64-64z" />
<glyph unicode="&#xe67d;" glyph-name="payment-creditcard_32" d="M32 768v-640h960v640h-960zM928 704v-64h-832v64h832zM96 192v352h832v-352h-832zM160 288h128v-32h-128v32zM320 288h128v-32h-128v32z" />
<glyph unicode="&#xe67e;" glyph-name="person_32" d="M512 672c70.688 0 128 57.312 128 128s-57.312 128-128 128-128-57.312-128-128 57.312-128 128-128zM512 864c35.296 0 64-28.704 64-64s-28.704-64-64-64-64 28.704-64 64 28.736 64 64 64zM608 608h-192c-35.328 0-64-28.672-64-64v-256l64-64v-224c0-17.664 14.304-32 32-32h128c17.696 0 32 14.336 32 32v224l64 64v256c0 35.328-28.672 64-64 64z" />
<glyph unicode="&#xe67f;" glyph-name="phone-call_32" d="M768 928l-192-224 64-96-288-288-96 64-224-160 96-256c160 64 352 192 512 352s288 352 352 512l-224 96zM594.752 365.248c-129.568-129.568-286.464-242.624-430.56-311.456l-55.008 146.688 148.064 105.792 102.912-68.608 362.176 362.208-66.176 99.296 129.856 151.488 121.536-52.064c-68.736-144.864-182.4-302.944-312.8-433.344z" />
<glyph unicode="&#xe680;" glyph-name="picturefile_32" d="M96 864v-832h832v832h-832zM160 800h704v-576h-704v576zM608 416l-224 224-160-160v-192h576v128l-96 96zM800 672c0-35.346-28.654-64-64-64s-64 28.654-64 64c0 35.346 28.654 64 64 64s64-28.654 64-64z" />
<glyph unicode="&#xe681;" glyph-name="piechart_32" d="M512 896v-448h-448c0-247.392 200.608-448 448-448s448 200.608 448 448-200.608 448-448 448zM576 826.656c181.376-30.56 320-188.704 320-378.656h-320v378.656zM512 64c-189.952 0-348.096 138.624-378.656 320h756.864c-30.592-181.312-188.32-320-378.208-320zM448 890.912c-196.064-28.128-350.784-182.848-378.912-378.912h378.912v378.912z" />
<glyph unicode="&#xe682;" glyph-name="presentationfile_32" d="M32 832v-768h960v768h-960zM928 128h-832v512h832v-512zM512 160c123.68 0 224 100.32 224 224s-100.32 224-224 224v-224h-224c0-123.68 100.32-224 224-224zM512 352h32v221.312c90.688-15.264 160-94.336 160-189.312 0-105.888-86.112-192-192-192-94.976 0-174.048 69.312-189.344 160h189.344zM480 605.44c-98.048-14.048-175.392-91.392-189.44-189.44h189.44v189.44z" />
<glyph unicode="&#xe683;" glyph-name="project-planning_32" d="M800 928l-768-768 192-192 768 768-192 192zM274.752 109.248l-101.504 101.504 84.672 84.704 50.752-50.752 22.624 22.624-50.72 50.752 41.376 41.376 50.752-50.752 22.624 22.624-50.752 50.752 41.376 41.376 50.752-50.752 22.624 22.624-50.752 50.752 41.376 41.376 50.752-50.752 22.624 22.624-50.752 50.752 41.376 41.376 50.752-50.752 22.624 22.624-50.752 50.752 41.376 41.376 50.752-50.752 22.624 22.624-50.752 50.752 199.424 199.392 101.504-101.472-626.752-626.752zM832 736c0-17.673-14.327-32-32-32s-32 14.327-32 32c0 17.673 14.327 32 32 32s32-14.327 32-32z" />
<glyph unicode="&#xe684;" glyph-name="rating-star_32" d="M992 544l-352 32-128 352-128-352-352-32 288-224-96-352 288 224 288-224-96 352 288 224zM551.296 242.528l-39.296 30.56-175.744-136.672 56.704 207.936-193.664 150.624 230.976 20.992 13.888 38.176 67.84 186.592 81.76-224.768 230.976-20.992-193.696-150.656 56.704-207.936-136.448 106.144z" />
<glyph unicode="&#xe685;" glyph-name="recommended_32" d="M464 525.248l-73.376 73.376-45.248-45.248 118.624-118.624 214.624 214.624-45.248 45.248zM864 576c0 194.368-157.568 352-352 352-194.368 0-352-157.632-352-352 0-134.72 75.808-251.68 187.008-310.848l-27.008-297.152 192 128 192-128-27.008 297.152c111.232 59.168 187.008 176.128 187.008 310.848zM512 288c-159.072 0-288 128.928-288 288s128.928 288 288 288 288-128.928 288-288-128.928-288-288-288z" />
<glyph unicode="&#xe686;" glyph-name="relationship_32" d="M768 672c70.688 0 128 57.312 128 128s-57.312 128-128 128-128-57.312-128-128 57.312-128 128-128zM768 864c35.296 0 64-28.704 64-64 0-35.264-28.704-64-64-64-35.328 0-64 28.736-64 64 0 35.296 28.672 64 64 64zM864 608h-192l-160-160-160 160h-192c-35.36 0-64-28.672-64-64v-256l64-64v-224c0-17.696 14.304-32 32-32h128c17.696 0 32 14.304 32 32v448l160-160 160 160v-448c0-17.696 14.304-32 32-32h128c17.696 0 32 14.304 32 32v224l64 64v256c0 35.328-28.672 64-64 64zM256 672c70.688 0 128 57.312 128 128s-57.312 128-128 128-128-57.312-128-128 57.312-128 128-128zM256 864c35.296 0 64-28.704 64-64 0-35.264-28.704-64-64-64-35.328 0-64 28.736-64 64 0 35.296 28.672 64 64 64z" />
<glyph unicode="&#xe687;" glyph-name="report_32" d="M320 736h160v-672h-160v672zM544 416h160v-32h-160v32zM544 480h160v-32h-160v32zM544 352h160v-32h-160v32zM544 288h160v-32h-160v32zM544 224h160v-32h-160v32zM544 160h160v-32h-160v32zM544 96h160v-32h-160v32zM192 928v-960h640v960h-640zM768 32h-512v768h512v-768z" />
<glyph unicode="&#xe688;" glyph-name="repository-archive_32" d="M928 640v64h-64v64h-704v-64h-64v-64h-64v-512h960v512h-64zM192 736h640v-32h-640v32zM928 192h-832v384h832v-384zM608 352h32v64h-32v-32h-192v32h-32v-64h32z" />
<glyph unicode="&#xe689;" glyph-name="role_32" d="M576 800v128h-128v-128h-256v-832h640v832h-256zM512 896c17.664 0 32-14.336 32-32s-14.336-32-32-32-32 14.336-32 32 14.336 32 32 32zM768 32h-512v704h192v-64h128v64h192v-704zM512 608c-88.384 0-160-71.616-160-160s71.616-160 160-160 160 71.616 160 160-71.616 160-160 160zM512 352c-52.928 0-96 43.072-96 96s43.072 96 96 96 96-43.072 96-96-43.072-96-96-96zM384 224c-35.328 0-64-28.672-64-64v-64h384v64c0 35.328-28.672 64-64 64h-256z" />
<glyph unicode="&#xe68a;" glyph-name="rss-feed_32" d="M96 864v-160c371.136 0 672-300.864 672-672h160c0 459.488-372.512 832-832 832zM96 544v-160c194.432 0 352-157.568 352-352h160c0 282.784-229.216 512-512 512zM256 80c0-61.856-50.144-112-112-112s-112 50.144-112 112c0 61.856 50.144 112 112 112s112-50.144 112-112z" />
<glyph unicode="&#xe68b;" glyph-name="satellitedish_32" d="M896 288l-288 288 79.808 133.024c4.832-2.912 10.176-5.024 16.192-5.024 17.696 0 32 14.304 32 32s-14.304 32-32 32-32-14.304-32-32c0-6.016 2.112-11.392 5.024-16.192l-133.024-79.808-288 288c-81.6-81.568-128-195.52-128-320 0-124.512 46.4-238.432 128-320 81.536-81.568 195.488-128 320-128 124.48 0 238.432 46.432 320 128zM192 608c0 83.648 23.84 161.696 68.064 225.44l541.376-541.376c-63.744-44.224-141.792-68.064-225.44-68.064-106.752 0-204.32 38.816-274.752 109.248s-109.248 168-109.248 274.752zM352 96h320v-128h-320v128z" />
<glyph unicode="&#xe68c;" glyph-name="settings_32" d="M971.712 771.968l-135.84-135.872c-18.752-18.72-43.296-28.096-67.872-28.096s-49.12 9.376-67.872 28.128c-37.504 37.472-37.504 98.272-0.032 135.776l135.84 135.84c-30.688 13.024-64.48 20.256-99.936 20.256-141.408 0-256-114.624-256-256 0-29.248 5.152-57.248 14.176-83.392l-429.376-429.408c-43.744-43.744-43.744-114.656 0-158.4 21.888-21.856 50.56-32.8 79.2-32.8s57.312 10.944 79.2 32.8l429.376 429.376c26.176-9.024 54.176-14.176 83.424-14.176 141.376 0 256 114.624 256 256 0 35.488-7.264 69.28-20.288 99.968zM736 480c-20.928 0-41.984 3.584-62.528 10.688l-37.856 13.088-457.664-457.696c-9.088-9.088-21.152-14.080-33.952-14.080s-24.864 4.992-33.92 14.080c-9.088 9.056-14.080 21.12-14.080 33.92 0 12.832 4.992 24.864 14.080 33.952l457.696 457.664-13.056 37.824c-7.136 20.576-10.72 41.632-10.72 62.56 0 92.832 66.208 170.496 153.92 188.192l-43.104-43.072c-62.336-62.4-62.304-163.904 0.032-226.24 30.208-30.208 70.4-46.88 113.152-46.88 42.72 0 82.912 16.64 113.12 46.88l43.104 43.104c-17.728-87.744-95.392-153.984-188.224-153.984zM176 80c0-17.673-14.327-32-32-32s-32 14.327-32 32c0 17.673 14.327 32 32 32s32-14.327 32-32z" />
<glyph unicode="&#xe68d;" glyph-name="spaces_32" d="M32 768v-640h960v640h-960zM928 192h-832v512h832v-512zM896 672h-352v-192h352v192zM864 512h-288v128h288v-128zM128 672h352v-192h-352v192zM480 416h-352v-192h352v192zM448 256h-288v128h288v-128zM896 416h-352v-192h352v192zM864 256h-288v128h288v-128z" />
<glyph unicode="&#xe68e;" glyph-name="spreadsheet-listview_32" d="M32 832v-768h960v768h-960zM928 128h-832v128h832v-128zM928 320h-832v128h832v-128zM928 512h-832v128h832v-128z" />
<glyph unicode="&#xe68f;" glyph-name="tag_32" d="M576 928l-544-544 416-416 544 544v416h-416zM928 538.496l-429.248-429.248-325.504 325.504 429.28 429.248h325.472v-325.504zM832 704c0-35.346-28.654-64-64-64s-64 28.654-64 64c0 35.346 28.654 64 64 64s64-28.654 64-64z" />
<glyph unicode="&#xe690;" glyph-name="task-tasks_32" d="M96 864v-640l192-192h640v832h-832zM864 96h-544v160h-160v544h704v-704zM726.624 553.376l-45.248 45.248-233.376-233.376-105.376 105.376-45.248-45.248 150.624-150.624z" />
<glyph unicode="&#xe691;" glyph-name="template_32" d="M576 608h-448v-448h448v448zM544 553.376v-338.752l-169.376 169.376 169.376 169.376zM352 406.624l-169.376 169.376h338.752l-169.376-169.376zM329.376 384l-169.376-169.376v338.752l169.376-169.376zM352 361.376l169.376-169.376h-338.752l169.376 169.376zM640 608h256v-448h-256v448zM32 832v-768h960v768h-960zM928 128h-832v512h832v-512z" />
<glyph unicode="&#xe692;" glyph-name="tile-tiles-tileview_32" d="M608 864h320v-320h-320v320zM544 864h-448v-832h832v448h-384v384zM480 96h-320v320h320v-320zM864 416v-320h-320v320h320zM160 480v320h320v-320h-320z" />
<glyph unicode="&#xe693;" glyph-name="tools-toolbox_32" d="M32 128l128-128 544 544-128 128-544-544zM160 90.496l-37.504 37.504 453.504 453.504 37.504-37.504-453.504-453.504zM960 608h-64v64l-224 224h-256l352-352h64v-64l32-32 128 128z" />
<glyph unicode="&#xe694;" glyph-name="traffic_32" d="M640 704c0-53.019-42.981-96-96-96s-96 42.981-96 96c0 53.019 42.981 96 96 96s96-42.981 96-96zM544 352c52.992 0 96 43.008 96 96s-43.008 96-96 96c-52.992 0-96-43.008-96-96s43.008-96 96-96zM544 512c35.296 0 64-28.672 64-64s-28.704-64-64-64-64 28.672-64 64 28.736 64 64 64zM544 96c52.992 0 96 43.008 96 96s-43.008 96-96 96c-52.992 0-96-43.008-96-96s43.008-96 96-96zM544 256c35.296 0 64-28.672 64-64s-28.704-64-64-64-64 28.672-64 64 28.736 64 64 64zM896 544h-128v64l128 192h-128v128h-448v-128h-128l128-192v-64h-128l128-192v-64h-128l128-192v-128h448v128l128 192h-128v64l128 192zM704 32h-320v832h320v-832z" />
<glyph unicode="&#xe695;" glyph-name="unlock-nonsecure_32" d="M617.376 470.624l-105.376-105.376-105.376 105.376-45.248-45.248 105.376-105.376-105.376-105.376 45.248-45.248 105.376 105.376 105.376-105.376 45.248 45.248-105.376 105.376 105.376 105.376zM512 672c-70.88 0-136.736-21.152-192-57.216v57.216c0 105.888 86.112 192 192 192 52.928 0 100.928-21.536 135.712-56.288l45.312 45.312c-46.336 46.336-110.336 74.976-181.024 74.976-141.408 0-256-114.624-256-256v-110.944c-59.36-63.008-96-147.68-96-241.056 0-194.368 157.632-352 352-352 194.432 0 352 157.632 352 352s-157.568 352-352 352zM512 32c-159.072 0-288 128.928-288 288s128.928 288 288 288c159.072 0 288-128.928 288-288s-128.928-288-288-288z" />
<glyph unicode="&#xe696;" glyph-name="user-profile_32" d="M512 288c176.736 0 320 143.264 320 320s-143.264 320-320 320-320-143.264-320-320 143.264-320 320-320zM512 864c141.152 0 256-114.848 256-256s-114.848-256-256-256-256 114.848-256 256 114.848 256 256 256zM768 224h-512c-70.688 0-128-57.312-128-128v-128h768v128c0 70.688-57.312 128-128 128z" />
<glyph unicode="&#xe697;" glyph-name="video_32" d="M352 544v-320l320 160zM32 832v-768h960v768h-960zM928 128h-832v512h832v-512z" />
<glyph unicode="&#xe698;" glyph-name="videofile_32" d="M96 864v-832h832v832h-832zM160 800h704v-576h-704v576zM320 320l384 192-384 192z" />
<glyph unicode="&#xe699;" glyph-name="watch-clock-time_32" d="M692.672 651.328l-169.344-169.376-84.704 84.672-45.248-45.248 84.672-84.704-41.376-41.344 22.656-22.656 41.344 41.408 52.704-52.704 45.248 45.248-52.704 52.704 169.408 169.344zM894.368 480c-9.504 115.136-69.728 215.584-158.368 279.424v168.576h-448v-168.576c-96.736-69.664-160-183.040-160-311.424s63.264-241.76 160-311.424v-168.576h448v168.576c88.64 63.84 148.864 164.32 158.368 279.424h33.632v64h-33.632zM512 128c-176.448 0-320 143.552-320 320s143.552 320 320 320 320-143.552 320-320-143.552-320-320-320z" />
<glyph unicode="&#xe69a;" glyph-name="wikis_32" d="M512 896c-247.424 0-448-200.576-448-448s200.576-448 448-448 448 200.576 448 448-200.576 448-448 448zM669.696 312.928l-135.072 135.072 259.552 259.552c0.064-0.064 0.128-0.128 0.192-0.224 17.536-148.576-26.944-289.824-124.672-394.4zM354.304 583.072l135.072-135.072-259.552-259.552c-0.064 0.064-0.128 0.128-0.192 0.224-17.536 148.576 26.944 289.824 124.672 394.4zM771.552 730.176l-259.552-259.552-135.2 135.2c88.8 82.944 206.176 128.864 332.992 128.864 20.32 0 40.736-1.6 61.12-3.936 0.224-0.192 0.416-0.384 0.64-0.576zM252.448 165.824l259.552 259.552 135.2-135.2c-88.8-82.944-206.176-128.864-332.96-128.864-20.32 0-40.768 1.6-61.152 3.936-0.224 0.192-0.416 0.384-0.64 0.576zM727.136 765.92c-5.792 0.192-11.552 0.768-17.312 0.768-135.328 0-260.736-49.28-355.616-138.24l-101.76 101.76c68.416 62.976 159.424 101.792 259.552 101.792 79.648 0 153.696-24.416 215.136-66.080zM229.824 707.552l101.568-101.568c-92.64-98.88-141.472-233.152-137.472-372.864-41.6 61.376-65.92 135.328-65.92 214.88 0 100.128 38.816 191.136 101.824 259.552zM296.864 130.080c5.792-0.192 11.584-0.768 17.344-0.768 135.328 0 260.736 49.248 355.584 138.24l101.76-101.76c-68.416-62.976-159.424-101.792-259.552-101.792-79.648 0-153.696 24.416-215.136 66.080zM794.176 188.448l-101.568 101.568c92.64 98.88 141.472 233.152 137.472 372.864 41.6-61.376 65.92-135.328 65.92-214.88 0-100.128-38.816-191.136-101.824-259.552z" />
<glyph unicode="&#xe69b;" glyph-name="workspace_32" d="M32 768v-64h64v-576h384v576h384v-576h64v576h64v64h-960zM416 512h-256v128h256v-128zM160 192v256h256v-256h-256zM320 576c0-17.673-14.327-32-32-32s-32 14.327-32 32c0 17.673 14.327 32 32 32s32-14.327 32-32z" />
<glyph unicode="&#xe69c;" glyph-name="world-globe_32" d="M274.4 354.4c65.6-65.6 151.584-98.4 237.6-98.4 80.992 0 161.76 29.504 225.728 87.68l0.576-0.576 22.624 22.624-0.576 0.608c119.936 131.808 116.64 335.904-10.752 463.264-65.6 65.6-151.584 98.4-237.6 98.4-80.992 0-161.76-29.504-225.728-87.68l-0.544 0.576-22.624-22.624 0.576-0.608c-119.968-131.808-116.64-335.872 10.72-463.264zM512 864c72.672 0 140.96-28.32 192.352-79.648 102.208-102.24 105.6-266.112 10.72-372.768l-383.552 383.552c49.824 44.32 113.152 68.864 180.48 68.864zM692.48 388.864c-49.824-44.32-113.152-68.864-180.48-68.864-72.672 0-140.96 28.32-192.352 79.648-102.208 102.208-105.6 266.080-10.72 372.768l383.552-383.552zM840.096 920.096l-45.248-45.248c75.552-75.552 117.152-175.968 117.152-282.848s-41.6-207.328-117.152-282.848c-75.52-75.52-175.968-117.152-282.848-117.152s-207.328 41.632-282.848 117.152l-45.248-45.248c87.584-87.648 204.128-135.904 328.096-135.904s240.512 48.256 328.096 135.904c87.616 87.616 135.904 204.16 135.904 328.096s-48.288 240.48-135.904 328.096zM352 64h320v-96h-320v96z" />
<glyph unicode="&#xe800;" glyph-name="flag_outline" d="M768 886.857l-160.914-168.229-51.2-51.2 51.2-51.2 160.914-168.229h-614.4v438.857h614.4zM943.543 960h-863.086v-1024h73.143v438.857h789.943l-285.257 292.571 285.257 292.571z" />
</font>
</defs>
</svg>
